<?xml version="1.0" encoding="UTF-8"?>
<!DOCTYPE svg PUBLIC "-//W3C//DTD SVG 1.1//EN" "http://www.w3.org/Graphics/SVG/1.1/DTD/svg11.dtd">
<!-- Creator: CorelDRAW X8 -->
<svg xmlns="http://www.w3.org/2000/svg" xml:space="preserve" width="1.05833E+06px" height="299861px" version="1.1" style="shape-rendering:geometricPrecision; text-rendering:geometricPrecision; image-rendering:optimizeQuality; fill-rule:evenodd; clip-rule:evenodd"
viewBox="0 0 595233 168864"
 xmlns:xlink="http://www.w3.org/1999/xlink">
 <defs>
  <style type="text/css">
   <![CDATA[
    .fil28 {fill:none}
    .fil3 {fill:black}
    .fil2 {fill:#1F1A17}
    .fil4 {fill:#201A18}
    .fil10 {fill:#313131}
    .fil0 {fill:#44916C}
    .fil8 {fill:#686563}
    .fil6 {fill:#7D7B7A}
    .fil11 {fill:#83807F}
    .fil23 {fill:#858382}
    .fil12 {fill:#8B8887}
    .fil14 {fill:#8D8A89}
    .fil15 {fill:#8E8D8B}
    .fil25 {fill:#908D8B}
    .fil24 {fill:#93908F}
    .fil13 {fill:#959392}
    .fil18 {fill:#999695}
    .fil22 {fill:#9B9897}
    .fil7 {fill:#9D9B9A}
    .fil17 {fill:#A19E9D}
    .fil9 {fill:#A2A09F}
    .fil16 {fill:#A4A3A1}
    .fil21 {fill:#A5A4A4}
    .fil5 {fill:#AAA8A7}
    .fil19 {fill:#ADABAA}
    .fil20 {fill:#B1B1B1}
    .fil1 {fill:#FF6500}
    .fil26 {fill:#F58634;fill-rule:nonzero}
    .fil27 {fill:seagreen;fill-rule:nonzero}
   ]]>
  </style>
 </defs>
 <g id="Layer_x0020_1">
  <metadata id="CorelCorpID_0Corel-Layer"/>
  <g id="_2008769730752">
   <path class="fil0" d="M37842 70453c31,17003 14820,30933 31907,30907 14543,-21 25314,-9378 29545,-19210 4084,-9488 2961,-20324 -2760,-28952 -645,-972 -1228,-1711 -1939,-2604 -252,-315 -496,-545 -733,-843 -391,-492 -2650,-2782 -3121,-3008l968 1438c5964,9552 4244,21775 -1146,30971 -1047,1787 -2132,3342 -3413,4916 -365,449 -255,371 -947,423 -2092,158 -4065,208 -5595,1362 -794,599 -1435,1373 -2041,2122 -223,276 -454,479 -448,976 1123,111 2933,-814 4020,-1122 1757,-499 2792,-185 4199,471 416,194 514,155 723,544 545,1012 570,2052 -36,2983 -732,1124 -1610,1457 -3067,2106 -2339,1043 -4937,1990 -7588,2632 -2999,725 -5004,737 -6534,3736l-302 -369c-566,-931 -1180,-1728 -2233,-2244 -1023,-503 -2775,-809 -4006,-1107 -2759,-667 -5203,-1590 -7643,-2636 -1835,-787 -3963,-1901 -3476,-4164 67,-310 215,-674 344,-917 220,-417 357,-395 757,-571 1502,-656 2331,-988 4198,-461 720,204 3385,1365 3929,1099 28,-22 211,-45 -39,-509 -69,-129 -216,-296 -298,-396 -2522,-3034 -3157,-3184 -7586,-3528 -675,-53 -652,56 -998,-377 -6890,-8620 -10516,-19925 -6974,-30965 554,-1725 1453,-3560 2385,-4996 356,-549 705,-990 1016,-1476 -667,434 -2742,2529 -3291,3176 -4859,5726 -7792,12436 -7777,20593z"/>
   <path class="fil1" d="M37842 70453c-15,-8157 2918,-14867 7777,-20593 549,-647 2624,-2742 3291,-3176 -311,486 -660,927 -1016,1476 -932,1436 -1831,3271 -2385,4996 -3542,11040 84,22345 6974,30965 346,433 323,324 998,377 4429,344 5064,494 7586,3528 82,100 229,267 298,396 250,464 67,487 39,509 -544,266 -3209,-895 -3929,-1099 -1867,-527 -2696,-195 -4198,461 -400,176 -537,154 -757,571 -129,243 -277,607 -344,917 -487,2263 1641,3377 3476,4164 2440,1046 4884,1969 7643,2636 1231,298 2983,604 4006,1107 1053,516 1667,1313 2233,2244l302 369c1530,-2999 3535,-3011 6534,-3736 2651,-642 5249,-1589 7588,-2632 1457,-649 2335,-982 3067,-2106 606,-931 581,-1971 36,-2983 -209,-389 -307,-350 -723,-544 -1407,-656 -2442,-970 -4199,-471 -1087,308 -2897,1233 -4020,1122 -6,-497 225,-700 448,-976 606,-749 1247,-1523 2041,-2122 1530,-1154 3503,-1204 5595,-1362 692,-52 582,26 947,-423 1281,-1574 2366,-3129 3413,-4916 5390,-9196 7110,-21419 1146,-30971l-968 -1438c471,226 2730,2516 3121,3008 237,298 481,528 733,843 711,893 1294,1632 1939,2604 5721,8628 6844,19464 2760,28952 -4231,9832 -15002,19189 -29545,19210 -17087,26 -31876,-13904 -31907,-30907zm26048 -23003c-111,-251 -519,-663 -708,-895 -4186,-5144 -661,-13418 6567,-13457 6227,-34 10534,6435 7409,12472 -189,366 -393,670 -603,972 -81,116 -544,729 -580,865l5401 10c168,396 570,974 818,1386l4087 6763c980,1679 980,994 135,2850 -1786,3920 -3713,7938 -5496,11856 -914,2009 -1821,4007 -2762,5943 -937,1928 -1832,4034 -2753,5945 -942,1952 -1836,3946 -2759,5948l-2792 5890c-346,-941 -947,-2039 -1373,-2973 -1337,-2937 -2798,-5892 -4155,-8848l-11774 -25130c-84,-329 1991,-3700 2240,-4134 817,-1426 2322,-4143 3160,-5499l5938 36zm-3667 -6515c0,2248 494,3791 1324,5362 -1481,0 -2747,-63 -4226,-63l-3050 5276c-517,947 -2397,4316 -3069,5319 38,166 180,468 253,631l2059 4374c118,231 175,384 275,608l2649 5615c109,217 173,347 279,604l1466 3138c825,1640 1538,3329 2333,4983l1768 3721c1248,2692 2457,5417 3786,8072l2627 5636c227,450 954,2270 1241,2480l1472 -3196c994,-2144 1928,-4296 2987,-6411 659,-1316 1193,-2698 1849,-4017 1124,-2260 2250,-4927 3366,-7231l753 -1643c133,-311 227,-501 361,-774l3344 -7254c121,-272 271,-510 396,-802l3730 -8065c294,-696 294,-269 -866,-2214l-3565 -5898c-583,-966 -1153,-2020 -1778,-2952l-3848 0c61,-263 670,-1418 946,-2523 320,-1276 253,-1875 253,-3091 478,40 1254,368 1694,513 1871,615 4831,2204 6270,3634 209,209 379,313 599,536 2310,2330 4037,5052 5071,8175 1110,3351 1317,5649 1317,9217 0,4950 -1946,11052 -4413,15330 -206,357 -374,680 -598,1042 -220,358 -424,646 -640,1000l-1360 1983c-1332,1769 -718,1162 -3417,1504 -551,70 -936,111 -1428,211 -1535,314 -2598,1065 -3617,2124 -534,554 -1569,1685 -1752,2411 -496,1966 1334,2001 2676,1603 2275,-675 3196,-1732 5591,-780 552,219 791,241 933,834 127,532 -9,974 -265,1348 -162,237 -703,717 -963,867 -209,120 -397,203 -597,285 -3035,1230 -3528,1610 -7113,2665 -898,265 -1914,491 -2884,712 -4263,967 -3672,1751 -4693,2434 -862,-1286 -2286,-1940 -3801,-2255 -2438,-507 -4770,-1110 -7086,-1997 -853,-327 -3379,-1326 -4251,-1806 -682,-376 -1327,-1041 -1327,-1889 0,-279 84,-633 210,-798 109,-142 467,-274 654,-355 2054,-893 3331,-172 5398,632 2513,977 4198,-417 2235,-2739 -2058,-2434 -2924,-3133 -6181,-3534 -457,-56 -818,-51 -1271,-117 -1449,-211 -745,199 -1754,-1021 -1274,-1541 -2264,-3344 -3263,-5064 -691,-1189 -1241,-2520 -1733,-3817 -262,-692 -519,-1321 -738,-2038 -1242,-4056 -2042,-9125 -1254,-13758 317,-1864 761,-3626 1451,-5361 219,-549 459,-1041 695,-1576 124,-281 259,-456 399,-735 143,-284 250,-464 401,-735 409,-736 869,-1378 1393,-2014 176,-214 322,-428 504,-631 1081,-1212 2224,-2327 3586,-3227 932,-615 1855,-1180 2884,-1657 518,-240 2829,-1144 3386,-1156 -33,141 -63,145 -63,315zm252 -1639c-805,67 -2352,690 -3154,1009 -3413,1354 -6151,3090 -9058,5388 -1041,823 -2130,1907 -3039,2889 -1855,2005 -4036,5062 -5210,7532 -2020,4249 -3322,8762 -3322,13646 0,4547 504,7297 1932,11313 1219,3427 3161,6619 5493,9394l1390 1574c813,808 1636,1681 2540,2380 172,133 378,303 552,458 716,638 1459,1180 2262,1712 2146,1421 2969,1829 5073,2875 840,418 1882,831 2830,1145 1005,332 1941,632 3061,912 5631,1407 12015,1326 17505,-424 240,-76 522,-160 773,-236 4285,-1302 8186,-3701 11555,-6549l540 -470c1469,-1176 3704,-3737 4753,-5276l795 -1161c1375,-2061 2561,-4323 3349,-6680 706,-2114 1322,-4226 1579,-6495 536,-4737 122,-9124 -1249,-13436 -634,-1993 -1383,-3674 -2300,-5522l-825 -1445c-892,-1450 -2118,-3337 -3302,-4520l-536 -600c-106,-106 -184,-175 -284,-283 -522,-564 -1035,-1210 -1646,-1697 -141,-113 -172,-119 -310,-258 -1326,-1327 -4204,-3345 -5882,-4211 -237,-122 -440,-252 -694,-379 -252,-125 -505,-252 -757,-378l-3090 -1388c-539,-214 -1111,-394 -1696,-576 -1645,-509 -474,243 -1880,-2598 -302,-612 -692,-1153 -1140,-1635 -128,-137 -134,-180 -254,-315 -143,-163 -410,-431 -573,-561 -854,-682 -1696,-1328 -2730,-1749 -2227,-908 -4936,-1014 -7212,-99 -744,300 -1376,626 -2017,1073 -219,153 -394,317 -596,477 -945,745 -1743,1787 -2346,2826 -346,595 -821,1633 -880,2338z"/>
   <path class="fil2" d="M45145 105206l0 0zm-252 4641l-149 -90 149 -170c286,-59 815,-501 1076,-657 373,-222 3070,-1932 3214,-2147 -111,-152 -574,-430 -769,-555 -342,-219 -2277,-1520 -2575,-1589 -293,196 -331,376 -694,567 25,-296 244,-572 316,-883 -201,-300 -1185,-996 -1557,-1219 -767,-460 -1118,-484 -2291,-484 115,-171 454,-692 505,-883 -339,-506 -2129,-2280 -2578,-2847 -440,-559 -404,-431 -1712,261 89,335 923,1008 1135,1325 -211,316 -2198,2036 -2634,2475l-898 868c110,164 896,1038 1135,1198 291,-77 3247,-3025 3533,-3217 222,60 880,762 946,1010 -892,74 -2081,1341 -2584,2209 -273,470 -522,1135 -635,1763 -118,648 -195,588 430,645 289,26 845,113 1149,113 12,-551 446,-1664 757,-1892 210,111 1200,886 1325,1072 -353,527 -846,987 -1199,1514 133,198 392,363 604,531 226,178 437,393 658,541l2603 -3138c130,-145 311,-328 362,-520 -149,-223 -1006,-902 -1262,-1073 -98,147 -243,289 -370,450 -132,166 -272,325 -387,497 -227,-61 -482,-306 -674,-462 -227,-183 -433,-316 -588,-548 225,-59 311,-175 678,-269 219,-56 610,-53 840,13 908,261 2786,2140 3529,2338l-4157 2782c-139,96 -177,84 -196,309 291,77 3165,2062 3470,2144 179,-120 970,-793 1072,-946 -82,-123 -1311,-987 -1577,-1036z"/>
   <path class="fil3" d="M75471 52450l-5390 22c437,-409 1948,-618 2696,-594 1044,35 1819,269 2694,572zm-5967 19l-5338 2c168,-129 357,-171 552,-229 694,-207 1392,-344 2129,-365 797,-22 2197,141 2657,592zm550 -3735c650,-255 953,-499 1841,-488 555,7 1378,234 1776,498 209,138 671,1211 820,1513 244,495 544,1029 740,1524 -350,-26 -861,-228 -1281,-302 -1630,-286 -2461,-72 -3896,377l0 -3122zm-5689 3057c172,-494 531,-1115 768,-1597 174,-354 531,-1276 806,-1461 1316,-883 3453,-332 3583,86l-11 3023c-934,-253 -1393,-490 -2538,-483 -1098,7 -1666,268 -2608,432zm-2227 1503l15323 -3 3 -817 -1281 -14c-228,-292 -1519,-3047 -1909,-3816 -207,-410 -230,-133 -314,-455l0 -3150c-670,-270 -1423,-518 -2122,-766 -410,-146 -1815,-735 -2121,-665l-4083 1593c0,806 -4,1614 0,2421 5,952 -16,548 -261,922l-1175 2361c-239,500 -560,1069 -763,1564l-1312 18 15 807z"/>
   <path class="fil2" d="M99224 109432l-22 -126 -3068 -1782c-343,-204 -249,-268 -269,-739 -27,-599 -125,-1155 -125,-1831 181,209 332,385 523,612l2145 2460c178,210 346,401 533,602 268,288 815,1075 1215,1059l186 88 66 -140c8,-15 17,-56 20,-47 43,129 32,-78 38,-95 28,-79 42,-130 62,-194 495,-1564 396,-1032 -168,-1648l-1403 -1625 1262 -1135c173,258 1684,2005 1892,2144 250,-167 398,-333 622,-513 333,-269 422,-437 640,-496 -77,-286 -1236,-1466 -1514,-1829 -106,-138 -150,-169 -267,-300l-1834 -2141c-96,-115 -466,-531 -549,-586 -236,158 -1116,918 -1261,1135l962 1119c189,201 166,143 299,395 -234,157 -404,318 -614,521l-647 551 -962 -1120c-138,-145 -206,-288 -363,-394 -444,298 -514,559 -1226,982 -258,153 -417,260 -654,418 -196,131 -491,372 -707,429 0,340 44,491 66,818 17,250 40,515 70,812 50,476 139,1104 180,1587 -265,-304 -550,-826 -783,-1173 -182,-272 -602,-1020 -794,-1161 -151,41 -526,291 -682,391 -206,132 -480,369 -706,429 54,235 256,482 381,691 738,1234 2491,3661 3025,4670 305,-71 1165,-691 1451,-883 -263,-498 -589,-946 -908,-1425 -167,-251 -287,-431 -454,-681 -175,-262 -305,-489 -467,-732 127,34 2927,1703 3217,1956 272,-182 520,-333 808,-517 200,-129 645,-400 784,-556z"/>
   <path class="fil2" d="M71830 113406c0,-162 100,-10 38,0 -1,0 -38,176 -38,0zm63 -126l0 -820c-573,0 -1056,-63 -1703,-63 0,460 -65,697 -63,1198 2,450 3,858 -45,1216l-81 2442c-442,0 -1014,44 -1365,-212 -801,-585 -11,-2567 220,-3140 749,-1862 1313,-1568 -1000,-1568 -186,0 -197,130 -276,292 -657,1352 -1049,2081 -1049,3745 0,1040 520,1812 1287,2119 787,316 2791,278 3886,278 0,-1647 126,-3144 126,-4794 9,14 17,21 20,44 3,23 16,34 20,43l169 399c81,153 171,292 280,413 219,245 458,457 694,694 244,244 446,476 710,678 455,347 568,456 568,820 -642,53 -1305,189 -2019,189 10,453 337,1002 442,1451 610,0 2430,-152 2877,-403 786,-441 902,-1433 368,-2211 -349,-508 -1994,-1854 -2094,-2018 -166,-272 -6,-316 284,-366 404,-68 1103,-111 1593,-111 0,-485 -315,-908 -442,-1451 -769,0 -2326,58 -2913,493 -82,61 -217,198 -278,290 -54,82 -51,95 -90,163l-126 190z"/>
   <path class="fil2" d="M101985 100665c0,-217 741,-2154 2349,-204 478,579 1164,2033 175,2033 -898,0 -2524,-992 -2524,-1829zm1262 -3595c162,242 468,515 631,757 -1109,-92 -1342,-200 -2634,1088 -1538,1532 -1425,2885 353,4282 2405,1890 5563,956 5030,-1938 -140,-765 -484,-1327 -843,-1869 -133,-200 -165,-213 -310,-384 -635,-755 -959,-809 -1092,-990 50,-187 200,-332 365,-581 138,-205 329,-381 392,-617 361,30 2528,1688 3067,2043 266,176 766,606 1034,669 120,-88 890,-1176 946,-1388l-1451 -1009c-178,-126 -334,-220 -522,-361 -331,-247 -1790,-1204 -1938,-1405 55,-207 323,-558 459,-739 184,-244 325,-470 487,-712 -513,-119 -956,-389 -1451,-504 -408,609 -831,1224 -1271,1819 -224,303 -409,592 -622,893 -150,211 -574,735 -630,946z"/>
   <path class="fil2" d="M115359 55757c85,-64 -133,-63 189,-63 -77,59 71,41 -189,63zm-5425 -102c104,184 95,250 133,478 33,196 25,283 120,453l251 -60c278,88 2013,-274 2434,-354 440,-82 830,-150 1234,-216 390,-64 859,-199 1253,-199 -49,43 -28,32 -112,78l-4935 1941c0,408 157,801 189,1198 538,0 826,67 1324,64l2840 62c552,0 900,63 1388,63l0 63c-610,0 -4458,814 -5299,884 0,214 81,931 139,1063 77,177 170,114 417,67 163,-31 390,-79 534,-104 721,-126 5893,-1090 6354,-1090 0,-349 -173,-1196 -236,-1593 -70,-439 -88,-264 -565,-318l-4435 -170c152,-132 2056,-879 2253,-964 390,-168 726,-296 1117,-460l1172 -468 -264 -1756c-70,-166 -138,-109 -464,-48 -794,146 -1547,259 -2306,411 -1407,280 -3341,532 -4599,825 31,117 9,82 63,150z"/>
   <path class="fil3" d="M58227 58573l23148 15 0 -1321c-5587,-101 -11684,-4 -17367,-4 -904,0 -5239,-111 -5757,36l-24 1274z"/>
   <path class="fil2" d="M111511 88744l0 0zm-1640 -2664c-206,184 -327,546 -463,814 -229,451 -311,392 -64,863 301,575 548,1126 842,1681l-2079 319c-231,63 -230,155 -508,689 -109,209 -324,590 -378,821 251,59 1159,535 1400,682 792,482 3257,1616 4278,2157 175,-333 687,-1216 757,-1514 -313,-166 -2964,-1610 -3281,-1609l-122 -87 122 -98c321,55 1080,-128 1545,-195 265,-38 397,27 385,-192 -10,-162 -711,-1312 -794,-1667 573,134 2864,1537 3343,1577l716 -1503c-926,-489 -1879,-939 -2797,-1398 -435,-218 -2562,-1351 -2776,-1366l-126 26z"/>
   <path class="fil2" d="M31267 90273l-127 -78c-11,-123 -45,-101 64,-101 191,-233 643,-1251 823,-1600 327,-631 -320,-897 -508,-1705 -299,25 -1123,498 -1430,652 -501,250 -928,464 -1430,715 -595,297 -2483,1330 -2817,1408 7,332 195,581 315,820 125,251 248,510 379,757 431,-100 2755,-1503 3343,-1640l-630 1325c-87,172 -170,264 -190,504 488,41 1544,307 1956,316l-1599 862c-577,288 -1130,549 -1682,841l716 1503c278,-14 1100,-488 1408,-641 619,-309 3885,-2039 4248,-2124 -6,-251 -492,-1414 -815,-1519 -201,-66 -1781,-317 -2024,-295z"/>
   <path class="fil2" d="M56564 112901l0 0zm-3280 -3406l28 190 -281 679 -402 1126c-136,411 -244,786 -400,1177 -135,344 -769,2103 -775,2379 224,18 1384,412 1577,504 219,-456 1129,-3137 1107,-3343 25,-66 24,-86 63,-154 51,-89 37,-47 114,-102l218 635c-63,246 214,1032 328,1255l189 1c269,-61 501,-303 731,-462 196,-136 581,-425 783,-479 -44,527 -933,2600 -1136,3469 481,230 1117,347 1578,568l1569 -4486c164,-494 398,-1078 512,-1569 -1723,-401 -986,-930 -2560,216 -206,150 -613,398 -747,541 -120,96 185,110 -113,70l-58 -133c-8,-300 -161,-648 -230,-897 -392,-1410 -200,-1133 -999,-1398 -241,-80 -705,-275 -907,-291l-189 504z"/>
   <path class="fil2" d="M116558 86158l-73 -114 -179 24c-292,-63 -563,37 -949,31 -387,-7 -616,-103 -944,-130 238,-496 332,-1213 567,-1703l1890 641c106,-204 502,-1389 508,-1650 -362,-84 -723,-234 -1096,-355 -418,-137 -741,-226 -1151,-363l-2232 -733c-99,206 -485,1394 -505,1640l1138 371c-27,302 -333,1228 -444,1458 -550,-146 -879,-988 -818,-1763 53,-681 526,-1549 566,-2021 -559,0 -916,-63 -1514,-63 -193,402 -691,2089 -624,2702 113,1039 442,1624 1112,2297 567,568 1248,964 2147,1196 501,129 854,186 1531,178 400,-6 1182,-127 1448,-255 -6,-254 -324,-1303 -378,-1388z"/>
   <path class="fil2" d="M21489 78463c44,67 1050,1016 1135,1073 223,-60 659,-511 1282,-800 199,-92 373,-125 548,-210 108,225 378,1420 378,1767 -351,0 -646,121 -951,184 -300,61 -643,187 -941,194 0,575 269,1088 315,1640 754,0 4064,-959 4669,-1009 -127,-543 -251,-1092 -379,-1640 -340,0 -935,176 -1262,252 -10,-461 -276,-1040 -315,-1513 1687,0 1873,1926 2145,3090 451,-105 974,-549 1324,-631 0,-942 -509,-2237 -1071,-2965 -249,-322 -741,-706 -1136,-882 -1337,-597 -2843,-442 -4060,167 -557,279 -1367,814 -1681,1283z"/>
   <path class="fil2" d="M81401 117568l550 -190 -79 -314c86,-269 -141,-1125 -205,-1445 -285,-1417 -557,-3040 -879,-4421 -139,67 -1403,315 -1640,315 0,389 282,1668 379,2082l-1592 -1247c-522,-429 -511,-481 -924,-392 -267,58 -1020,162 -1206,251 0,423 1095,5800 1198,6244 152,-72 1396,-309 1641,-315 0,-384 -412,-2344 -521,-2885 -48,-239 -167,-687 -173,-962 277,185 534,423 805,645 1661,1353 1092,678 1592,2824 260,0 910,-106 1054,-190z"/>
   <path class="fil2" d="M52650 110441l-60 -126 -315 -190c-388,-191 -784,-480 -1073,-504 -193,364 -374,706 -568,1072 -223,-117 -437,-203 -667,-341 -241,-145 -437,-286 -721,-352 325,-486 1150,-752 1916,-529 845,247 1392,805 1806,817 133,-100 89,-68 116,-280 8,-65 13,-151 36,-215 40,-113 68,-121 101,-168l63 -130c6,-278 63,-295 63,-630 -1399,-740 -2740,-1503 -4376,-717l-1592 1309c-390,514 -781,1326 -917,1985 -47,231 -216,1525 -105,1829 87,239 -4,113 742,70 1284,-75 798,-39 973,-1172 58,-373 160,-698 291,-971 543,127 1061,637 1577,757 -97,416 -874,1477 -883,1892 487,113 1014,652 1514,694 84,-361 347,-704 506,-1008 184,-356 326,-679 540,-1037 196,-328 332,-656 509,-1005 166,-326 448,-693 524,-1050z"/>
   <polygon class="fil3" points="80782,57051 80794,55893 58812,55888 58843,57060 "/>
   <path class="fil2" d="M111598 80986l-15 168c250,63 323,24 520,148l3239 585c487,84 1100,204 1602,290 1105,188 786,152 1759,71 -8,-339 -489,-1435 -631,-1703 -1116,0 -2054,-379 -2839,-379 0,-605 252,-1135 252,-1703l2780 478c200,-52 370,-1471 374,-1676 -223,-5 -563,-81 -762,-120l-4663 -826c-280,-46 -514,-126 -820,-126 -48,578 -252,1017 -252,1703 603,0 1313,267 1892,315 -11,530 -252,1118 -252,1640 -648,-14 -1336,-315 -2019,-315 0,525 -231,1012 -165,1450z"/>
   <path class="fil2" d="M65143 112097l-184 -14 -68 200c-86,159 -217,1141 -126,1375l-94 379 -347 -64 -193 -60c-357,-76 -440,-98 -691,-6l-494 -123 23 -236c2,-29 20,-32 30,-48l252 -1734c-565,0 -1056,-189 -1704,-189l-880 6184c-36,441 61,654 61,1006 386,-9 546,-164 846,-289 325,-135 521,-264 857,-342 0,-1228 298,-2108 315,-2901 601,0 1096,189 1640,189 0,491 -202,1718 -289,2298 -97,647 -105,546 94,605 128,38 1393,220 1489,160 155,-96 87,-252 154,-733l758 -5361c-36,-268 -370,-190 -648,-230 -310,-43 -470,-98 -801,-66z"/>
   <path class="fil2" d="M66702 42706l-1052 440 -18 1455c534,-106 1533,-564 2083,-779 2531,-989 1650,-989 4191,5 538,210 1547,668 2072,778l-3 -1460 -1049 -424c-50,-2144 304,-618 303,-1912 0,-808 -136,-413 -289,-790 -82,-202 -34,-844 -34,-1102 0,-357 2,-715 0,-1072 -5,-1059 129,-567 140,-1012 10,-404 -237,-241 -307,-845 -31,-267 19,-744 -215,-918 -250,175 -173,889 -261,1187 -77,265 -137,178 -212,363 -129,312 100,486 106,906l1 2216c-17,610 -266,289 -323,752 -157,1286 358,458 286,1868 -545,-57 -1777,-815 -2273,-875 -226,-27 -1879,761 -2338,875 -13,-1454 248,-541 290,-1296 70,-1265 -301,-589 -321,-1324l1 -2153c0,-424 196,-646 118,-925 -110,-386 -230,15 -297,-988 -5,-79 -8,-78 -29,-160 -27,-105 -72,-340 -110,-430 -114,26 -95,-68 -218,343 -63,207 -51,151 -55,398 -15,932 -488,523 -220,1311 89,262 96,2522 48,2785 -78,434 -306,72 -309,821 -7,1340 343,-200 294,1962z"/>
   <path class="fil2" d="M64576 17094c7,312 94,770 137,1124 45,360 95,767 151,1174l279 2370c-178,-131 -1921,-2819 -2195,-3230 -160,-239 -645,-894 -707,-1123 -479,0 -846,92 -1261,127 0,503 338,3033 422,3677 87,655 141,1198 228,1854l233 1848c374,-31 702,-126 1136,-126l-505 -4668 2902 4353 1071 -129c293,-67 209,-59 92,-908l-653 -5339c-41,-354 -132,-795 -132,-1130 -453,0 -806,117 -1198,126z"/>
   <path class="fil2" d="M99588 32988l0 0zm-741 -2964l197 -149 -87 239 -870 3707c-85,358 -265,937 -265,1312 245,164 682,623 946,694 299,-201 2010,-2362 2383,-2790 209,-239 375,-444 573,-688 198,-244 417,-462 613,-712 339,-433 884,-1008 1162,-1424l-883 -757 -2634 3107c-160,173 -201,296 -394,425 7,-320 194,-965 277,-1299 140,-558 858,-3519 858,-3873 -193,-129 -248,-171 -427,-329 -120,-105 -340,-287 -456,-364 -377,252 -3790,4495 -4465,5248 -170,190 -199,139 -266,428 96,144 653,582 820,694 265,-178 1890,-2172 2217,-2577 142,-176 246,-278 379,-441 90,-112 297,-320 322,-451z"/>
   <path class="fil2" d="M42875 24978l1666 2433c135,186 213,292 339,482 233,350 479,654 707,995 -245,-56 -388,-164 -594,-288 -206,-124 -367,-191 -584,-299l-2334 -1262c-1440,-799 -1123,-694 -1724,-295 -147,98 -336,271 -505,315l1577 2272c184,260 350,507 551,774l1577 2270c202,270 325,565 585,739 229,-61 766,-456 884,-630 -78,-335 -1637,-2431 -1905,-2827 -227,-335 -462,-629 -682,-958 286,67 3685,1917 4226,2209 344,187 375,239 695,1 194,-143 442,-376 693,-444 -29,-358 -1887,-2816 -2081,-3091l-1577 -2270c-104,-158 -444,-666 -568,-757 -185,50 -758,505 -946,631z"/>
   <path class="fil2" d="M83351 110693l19 -263 -310 119c-285,-61 -1285,365 -1337,448 -74,116 -179,1461 -180,1714 -9,1146 284,2292 746,2979 238,354 591,687 969,860 972,442 2588,-267 3721,-676 201,-73 511,-177 686,-261 -19,-230 -378,-1166 -481,-1474l-1538 -4518c-221,19 -1458,368 -1577,568 -46,97 -26,-32 -10,98 6,51 16,82 28,127l1496 4379c-639,149 -1632,917 -2120,-782 -143,-496 -204,-1942 -142,-2488 33,-288 88,-438 30,-830z"/>
   <path class="fil2" d="M29690 95998c0,809 523,1524 910,2054l1235 1730 3893 -2730c225,-169 406,-279 637,-435 151,-103 560,-380 643,-493 -51,-189 -777,-1211 -946,-1325 -326,76 -3059,2070 -3496,2372 -198,137 -304,277 -542,340 -442,-659 -889,-1045 -417,-1741 251,-372 1091,-747 1499,-899 785,-292 2492,-598 2577,-639 -155,-293 -295,-439 -480,-719 -143,-216 -410,-519 -466,-732 -1115,0 -2296,426 -3218,883 -763,377 -1829,1220 -1829,2334z"/>
   <path class="fil2" d="M79338 23843c-691,0 -1160,-243 -1577,-253 89,-185 201,-863 256,-1130 79,-379 166,-791 261,-1190l492 -2410c411,96 1066,184 1428,338 1219,518 610,2605 331,3439 -178,534 -478,1206 -1191,1206zm-3028 757c1777,147 3861,1639 5195,-987 822,-1621 1280,-4732 -553,-5548 -383,-170 -2601,-707 -3128,-719 -90,186 -1514,6916 -1514,7254z"/>
   <path class="fil2" d="M70509 22834c-314,156 -1047,125 -1429,45l-26 -4883c380,-73 1003,-89 1281,44 535,51 871,309 1044,704 354,801 329,2419 83,3216 -170,549 -387,738 -953,874zm-2653 1324l2271 0c3560,0 3062,-4757 2357,-6141 -308,-603 -916,-1238 -1789,-1238l-2839 0 0 7379z"/>
   <polygon class="fil3" points="59814,55719 79779,55704 79761,54576 59818,54576 "/>
   <path class="fil2" d="M85520 27174c216,-47 34,65 189,-94 182,-259 245,-502 379,-777 748,-1542 73,-837 1829,-1766l126 3695c54,49 92,91 135,152 11,9 32,5 37,23l247 126c1479,710 1014,597 971,-1222 -19,-775 -254,-2756 -254,-3468 399,-93 1070,-537 1472,-736 278,-138 480,-240 757,-379 162,-80 603,-263 706,-399 77,-62 -92,-36 170,-105 -11,-12 -52,-91 -127,-147 -145,-110 -1064,-543 -1226,-555 -223,-18 -384,154 -595,261 -473,240 -2692,1550 -2987,1618l989 -2165c124,-259 213,-503 336,-736l-1198 -505 -715 1683c-212,455 -2224,4815 -2250,5129 376,88 679,319 1009,367z"/>
   <path class="fil2" d="M106085 38602c0,1480 568,1658 568,2712 0,770 -1141,939 -1651,327 -884,-1060 32,-1685 264,-2030 -66,-98 -736,-827 -821,-883 -204,54 -296,180 -423,333 -127,154 -248,297 -361,459 -1066,1533 260,3621 1893,3844 1148,156 2613,-1070 2613,-2239 0,-424 -159,-947 -275,-1302 -178,-546 -838,-1915 338,-1915 411,0 947,569 947,1261 0,371 -292,533 -442,757 230,264 574,781 820,946 2154,-1442 351,-4226 -1262,-4226 -1161,0 -2208,1086 -2208,1956z"/>
   <path class="fil2" d="M54356 19238l2082 7128 4416 -1262c-9,-385 -227,-881 -316,-1261 -420,98 -2971,876 -3280,883 -146,-625 -359,-1205 -505,-1829l2541 -741c304,-82 353,-49 313,-275l-330 -1066c-487,114 -936,255 -1438,392 -220,59 -473,137 -734,212 -224,63 -568,139 -730,216 -117,-501 -328,-1026 -442,-1514 350,-167 2657,-683 3154,-946 -164,-342 -214,-856 -378,-1198l-4353 1261z"/>
   <path class="fil2" d="M30952 36583c0,565 318,1178 612,1470 533,529 1022,675 1785,675 930,0 2082,-1325 2713,-1325 916,0 1171,1572 62,2082 -248,114 -483,106 -748,59 -349,-61 -456,-223 -766,-248l-630 1009c2763,1849 4226,-907 4226,-1703l0 -442c0,-862 -1080,-2144 -2460,-2144 -1249,0 -2724,1979 -3381,1109 -473,-625 426,-1551 921,-1551 405,0 502,179 820,253 209,-396 479,-668 694,-1073 -601,-160 -328,-504 -1704,-504 -938,0 -2144,1375 -2144,2333z"/>
   <path class="fil2" d="M27269 54054c-26,73 -9,68 -69,82 -130,29 -29,65 -118,-19 -36,-42 -9,-24 -86,-86 -76,-63 -78,-60 -145,-101l-1956 -1263 2713 0c-76,326 -392,1092 -339,1387zm-4014 -2522c-38,457 -306,883 -315,1324 387,103 6072,4127 6497,4226 93,-399 316,-872 316,-1325 -232,-53 -1204,-717 -1451,-883 100,-209 253,-828 338,-1112 86,-289 287,-883 293,-1158l1829 -63c39,-463 279,-879 316,-1325 -424,0 -576,61 -944,66 -328,4 -689,-20 -1012,-3l-4860 187c-374,5 -566,66 -1007,66z"/>
   <path class="fil2" d="M37638 31601c296,69 1993,1187 2272,1261 -62,92 -1006,1021 -1199,1072 -66,-280 -399,-861 -547,-1156l-526 -1177zm0 -63l0 63 -63 26 -87 -178 150 89zm-1766 -946c0,186 644,1542 757,1766l2460 5235c285,-24 359,-198 521,-363 64,-65 489,-438 489,-457 0,-331 -597,-1162 -694,-1577 175,-263 1522,-1519 1703,-1640l1514 820c246,-165 883,-707 947,-946 -565,-299 -1088,-618 -1662,-926l-5088 -2796c-192,129 -270,262 -469,415 -105,82 -478,362 -478,469z"/>
   <path class="fil2" d="M94289 28573l-1325 -820c147,-200 774,-676 993,-899l1026 -867 -694 2586zm-4731 505c122,167 845,574 1072,694l1325 -1136 1510 950c165,98 347,204 508,312 -89,185 -420,1449 -441,1703 189,126 377,234 580,366 171,111 420,281 618,328 7,-322 807,-3351 909,-3760l921 -3809c-364,-244 -771,-450 -1136,-694l-3644 3105c-255,227 -506,394 -756,632 -235,224 -1386,1008 -1466,1309z"/>
   <path class="fil2" d="M29437 42071c575,48 2102,556 2587,567l-757 1388 -1830 -1955zm3155 5232c195,-6 63,44 189,-61l154 -223c74,-116 72,-115 140,-239 108,-200 178,-303 274,-483 -131,-196 -945,-1092 -1199,-1262 376,-710 825,-1376 1199,-2081l1703 378c171,-323 608,-926 631,-1198 -280,-65 -7193,-1577 -7634,-1577 -80,347 -479,759 -567,1135 159,238 402,499 615,709 466,458 1323,1514 1925,2113l630 694c363,358 1694,1938 1940,2095z"/>
   <path class="fil2" d="M111889 51847c-40,-485 -401,-1028 -441,-1514 441,0 883,-1 1325,0 539,2 821,-63 1324,-63 -90,123 -370,298 -531,415l-1109 783c-190,134 -361,270 -568,379zm-3974 -2712c90,386 348,890 378,1261l1767 0 767 2268c-180,48 -239,108 -372,209 -142,109 -219,154 -368,262l-721 541c177,368 265,893 442,1261l3153 -2271c253,-177 509,-380 758,-567l2397 -1703c-90,-385 -278,-1015 -442,-1324 -1356,0 -2494,63 -3848,63 -1303,0 -2607,0 -3911,0z"/>
   <path class="fil2" d="M49940 22392c639,-53 1528,-1086 2247,-39 182,265 261,614 126,959 -169,436 -1279,908 -1553,972l-716 -1617c-44,-101 -72,-203 -104,-275zm1199 5815c161,206 21,196 252,221 283,12 636,-272 1009,-359 -109,-471 -967,-2136 -1072,-2587 693,-366 1792,-689 2168,-1364 684,-1228 -222,-3147 -1354,-3549 -846,-300 -1701,215 -2642,626 -401,176 -884,366 -1263,567l357 777c412,882 2307,5357 2545,5668z"/>
   <polygon class="fil3" points="60837,54379 78767,54361 78768,53525 60825,53524 "/>
   <path class="fil2" d="M22057 56641c0,204 1613,1191 1872,1344 220,130 498,364 714,421l0 127c-354,29 -2382,795 -3028,946 0,280 -47,566 -90,857 -99,660 -163,670 432,432 145,-59 228,-81 375,-130l3219 -1134c69,-24 352,-151 354,-151 520,0 1078,124 1573,192 539,75 1033,186 1644,186 0,-276 29,-383 67,-628 31,-194 148,-492 -33,-602 -144,-86 -2684,-267 -3091,-507l-2986 -2123c-302,-202 -630,-493 -896,-555 0,508 -126,817 -126,1325z"/>
   <path class="fil2" d="M25652 45224l2145 2397c-1094,0 -2117,189 -3217,189 -95,406 -473,1006 -505,1388l4222 -383c919,-76 594,-36 1780,437 339,135 1428,618 1695,640 41,-180 133,-364 207,-550 84,-212 189,-391 234,-586l-1884 -765c-1490,-611 -1014,-502 -2202,-1835 -216,-243 -458,-498 -645,-742l-1262 -1451c-178,130 -225,370 -306,577 -86,215 -212,471 -262,684z"/>
   <path class="fil2" d="M35943 102620l24 -126 -102 -181c-242,-358 -822,-908 -1191,-1459 209,-140 265,-193 461,-359 169,-143 327,-252 494,-389 316,-257 612,-508 923,-779l1366 -1158c199,-155 302,-288 477,-405 -200,-300 -798,-1078 -1072,-1262 -181,49 -460,314 -615,458 -971,902 -2538,2102 -3598,3025 -135,119 -177,127 -312,255 -161,153 -111,177 -332,236 68,256 356,490 514,684 197,245 363,450 572,689 200,229 365,472 570,692 221,239 360,477 615,647 185,-43 1071,-460 1206,-568z"/>
   <path class="fil2" d="M85962 109495c28,342 480,1117 630,1452 120,271 199,461 337,735l997 2156c103,255 228,452 343,730 120,291 211,482 342,730 134,-65 245,-92 400,-167l2754 -1284c0,-220 -192,-1326 -252,-1450l-1473 609c-210,102 -290,189 -546,211l-1493 -3238c-193,-384 -335,-755 -525,-1114 -387,32 -1101,534 -1514,630z"/>
   <path class="fil2" d="M23571 83320c28,343 398,1290 528,1679l422 1282c132,417 -9,319 1321,319 448,0 285,-187 39,-922 -105,-314 -348,-906 -355,-1223l4605 -1513 -514 -1574 -4524 1456c-456,151 -1049,386 -1522,496z"/>
   <path class="fil2" d="M105770 45035c21,245 509,1097 693,1452 196,375 1207,2156 1263,2396l1135 -568c-23,-282 -1263,-2477 -1388,-2712 540,-361 4391,-2324 5363,-2838 -106,-201 -530,-973 -568,-1136l-5657 2985c-294,146 -525,348 -841,421z"/>
   <path class="fil4" d="M112502 71589l-35 159 116 -65c277,-64 1372,-944 1703,-1167l1335 937c91,67 105,86 214,167 188,138 71,118 281,132l42 -37c52,-467 -563,-1585 -610,-2145 302,-202 590,-423 884,-630 191,-135 774,-585 946,-631l0 -189 -2335 0c-85,-179 -101,-307 -166,-528 -64,-219 -116,-352 -188,-568 -73,-219 -122,-350 -189,-568 -97,-313 -20,-413 -276,-481 -20,237 -588,1923 -694,2145l-2335 0c82,306 641,573 884,756 165,125 292,209 478,343 214,155 300,229 531,351 -115,240 -633,1803 -586,2019z"/>
   <path class="fil4" d="M22587 71589l-30 158 130 -57c276,-81 1367,-948 1704,-1174l1261 884c388,278 214,246 442,252 279,129 67,46 140,0l-266 -757c114,-340 -281,-905 -316,-1325l1326 -945c134,-95 346,-274 504,-316l0 -189 -2334 0c-131,-559 -663,-1830 -694,-2208 -234,171 -673,1902 -820,2208l-2335 0c60,223 50,151 406,414 273,203 1384,946 1424,1099 -44,524 -603,1522 -542,1956z"/>
   <path class="fil2" d="M106842 91760l-819 1336 1991 1225c792,485 2708,1768 3371,2118 171,-256 829,-1219 883,-1450 -326,-218 -4998,-3223 -5299,-3270l-127 41z"/>
   <path class="fil2" d="M85623 19554c-7,-148 10,-91 -45,-189 -179,-90 -816,-310 -1067,-316 -108,225 -182,580 -276,860 -280,832 -1988,5865 -1996,6204 432,36 747,305 1199,316 68,-290 176,-559 276,-859 220,-656 1930,-5729 1909,-6016z"/>
   <path class="fil2" d="M74732 17678c-8,15 -887,6489 -764,6610 113,111 734,134 954,90l191 26 61 -185c81,-124 110,-623 132,-812 122,-1061 751,-5783 751,-6313 -346,0 -523,-98 -883,-35l-326 -54c-24,262 -14,466 -116,673z"/>
   <path class="fil2" d="M101165 38476c68,291 739,955 820,1009l680 -583c918,-913 2166,-1919 3090,-2775l1718 -1625c-130,-150 -246,-271 -395,-424 -168,-174 -230,-329 -425,-459 -386,258 -607,546 -1019,874l-1730 1549c-447,346 -1742,1633 -2009,1839 -241,187 -451,520 -730,595z"/>
   <path class="fil3" d="M70764 61884c-86,-108 -47,19 -76,-195l28 -674c208,-60 559,-100 669,68 272,62 383,394 170,640 -161,187 -508,166 -791,161zm-36 800c629,0 1326,30 1734,-303 441,-360 903,-2145 -1008,-2171 -602,-8 -1360,-32 -1948,14l14 3920 1207 -29 1 -1431z"/>
   <path class="fil3" d="M64033 62448c151,158 106,84 108,371l-5 1285 1120 0c0,-301 1,-603 0,-904 0,-386 -66,-585 105,-744l1439 -2244 -1297 1 -823 1284 -798 -1284 -1307 18 1458 2217z"/>
   <polygon class="fil3" points="75820,64140 77026,64143 77027,60212 76940,60209 75803,60229 "/>
   <path class="fil5" d="M80782 57051l-21939 9 -31 -1172 21982 5c-92,-70 -66,-78 -317,-86 -92,-3 -221,5 -319,5 -2912,18 -20751,-83 -21362,29 -128,280 -120,1002 5,1289 552,83 10169,23 11011,23l10729 6c307,-31 171,38 241,-108z"/>
   <path class="fil6" d="M58227 58573l24 -1274c518,-147 4853,-36 5757,-36 5683,0 11780,-97 17367,4l0 1321 -23148 -15zm0 0c30,39 -46,77 286,89 114,4 266,-5 385,-5 3131,-11 21733,78 22496,-20 86,-296 75,-1109 10,-1419 -689,-111 -2177,-26 -2949,-26 -3166,0 -19916,-80 -20273,54 -30,236 -17,479 -18,719 -1,366 -60,548 63,608z"/>
   <path class="fil3" d="M70949 50592c446,-12 523,-132 1640,-123 817,8 827,310 1449,309 203,-441 140,-369 -133,-571l60 -428c-765,-220 -562,-438 -1566,-448 -551,-6 -1280,-31 -1767,182 -29,194 51,289 100,473 432,-76 664,-141 1161,-148 284,-3 858,-68 1085,115 -675,26 -1548,-69 -2166,200l137 439z"/>
   <path class="fil4" d="M26662 85969c22,271 809,2078 883,2397 173,-83 381,-154 591,-229 239,-85 367,-156 607,-213 -45,-197 -146,-387 -225,-594l-658 -1802c-430,100 -800,348 -1198,441z"/>
   <path class="fil3" d="M65774 49454l-47 475c297,-31 170,-56 435,-158 190,-73 348,-132 558,-91 349,59 687,-55 1032,58 353,116 403,230 858,242 31,-193 9,-247 63,-413 59,-180 6,112 69,-188 99,-467 -53,-373 -532,-536 -799,-271 -1477,-337 -2254,-40l124 480c417,-144 892,-173 1321,-120 -495,124 -1245,-42 -1627,291z"/>
   <path class="fil3" d="M70952 51393c2580,-592 2454,198 3385,69l-13 -473c-1629,-340 -1677,-532 -3489,-105l117 509z"/>
   <path class="fil3" d="M65270 51322c607,-228 808,-323 1577,-285 298,15 590,11 863,75 254,60 423,156 678,128l15 -465c-955,-372 -2582,-402 -3375,136l242 411z"/>
   <path class="fil3" d="M70470 48964l224 419c1191,-496 1472,-234 2905,-250 -150,-740 -2456,-734 -3129,-169z"/>
   <path class="fil3" d="M65593 50144l-18 404c524,-17 233,-214 1525,-243 929,-21 909,382 1401,269l0 -403c-569,-335 -1101,-333 -1846,-339 -460,186 -592,-4 -1062,312z"/>
   <path class="fil7" d="M70509 22834l-1391 0 0 -4794 1217 0c-278,-133 -901,-117 -1281,-44l26 4883c382,80 1115,111 1429,-45z"/>
   <path class="fil8" d="M65361 62456c-171,159 -105,358 -105,744 1,301 0,603 0,904l-1120 0 5 -1285c-2,-287 43,-213 -108,-371l47 1694c322,80 921,89 1247,-7l34 -1679z"/>
   <path class="fil9" d="M66655 49832c745,6 1277,4 1846,339l0 403c145,-84 59,2 80,-233 15,-162 -2,-171 29,-361 -455,-12 -505,-126 -858,-242 -345,-113 -683,1 -1032,-58l-391 105 326 47z"/>
   <path class="fil10" d="M65593 50144c470,-316 602,-126 1062,-312l-326 -47 391 -105c-210,-41 -368,18 -558,91 -265,102 -138,127 -435,158l47 -475c-191,91 -104,36 -122,308 -16,258 25,150 -59,382z"/>
   <path class="fil11" d="M70764 61884l-2 -844 623 43c-110,-168 -461,-128 -669,-68l-28 674c29,214 -10,87 76,195z"/>
   <path class="fil12" d="M26094 71652c81,129 -78,112 252,189l-205 -735c-134,-308 26,-79 -173,-211l266 757c-73,46 139,129 -140,0z"/>
   <path class="fil13" d="M110438 56526l-251 60c-95,-170 -87,-257 -120,-453 -38,-228 -29,-294 -133,-478 6,368 126,613 126,986 16,0 189,5 192,4 208,-53 65,21 186,-119z"/>
   <path class="fil13" d="M52968 110288c0,110 -32,98 63,76l281 -679 -91 -60c-33,47 -61,55 -101,168 -23,64 -28,150 -36,215 -27,212 17,180 -116,280z"/>
   <path class="fil7" d="M81401 117568c325,0 302,-56 586,-62 0,-25 6,-253 5,-256 -48,-210 19,-66 -120,-186l79 314 -550 190z"/>
   <path class="fil13" d="M54138 112207c13,-12 39,-44 45,-31l110 -95c24,103 31,148 65,247 87,249 81,181 175,258l-218 -635c-77,55 -63,13 -114,102 -39,68 -38,88 -63,154z"/>
   <path class="fil13" d="M74732 17678c102,-207 92,-411 116,-673l326 54c-117,-107 52,-42 -131,-85 -54,-13 -186,-6 -248,-6 -21,262 -63,355 -63,710z"/>
   <path class="fil7" d="M112103 81302c-197,-124 -270,-85 -520,-148l15 -168c-87,96 -87,-145 -87,253 319,0 289,57 592,63z"/>
   <path class="fil13" d="M83060 110549l310 -119 -19 263c73,-83 87,33 87,-315 -275,23 -233,2 -378,171z"/>
   <path class="fil14" d="M64324 113973l347 64 94 -379c-141,111 -126,-164 -126,315l-315 0z"/>
   <path class="fil15" d="M63440 113907c-121,-150 32,-84 -186,-128 -3,-1 -231,5 -255,5l0 -284c-10,16 -28,19 -30,48l-23 236 494 123z"/>
   <path class="fil7" d="M92114 22329c247,-53 160,-6 282,-189 -111,-56 -72,-48 -239,-63 75,56 116,135 127,147 -262,69 -93,43 -170,105z"/>
   <path class="fil7" d="M22687 71690l-130 57 30 -158c-88,90 -26,-3 -94,118 -2,4 -50,117 -58,134 284,-24 135,52 252,-151z"/>
   <path class="fil15" d="M51391 28428c-231,-25 -91,-15 -252,-221 15,164 30,161 63,303 356,0 75,15 189,-82z"/>
   <path class="fil15" d="M112583 71683l-116 65 35 -159c-125,111 -108,-180 -108,252 205,-49 98,9 189,-158z"/>
   <path class="fil16" d="M74922 24378c104,104 -164,96 252,96l0 -255 -61 185 -191 -26z"/>
   <path class="fil17" d="M64891 112283l68 -200 184 14c-80,-66 98,-79 -252,-79l0 265z"/>
   <path class="fil18" d="M100156 109687c115,148 -188,124 252,124l0 -176 -66 140 -186 -88z"/>
   <path class="fil19" d="M55050 113842l-189 -1 0 132c187,-45 92,8 189,-131z"/>
   <path class="fil5" d="M85520 27174c98,88 -153,75 189,75l0 -169c-155,159 27,47 -189,94z"/>
   <path class="fil20" d="M85623 19554c105,-101 86,158 86,-189l-131 0c55,98 38,41 45,189z"/>
   <path class="fil16" d="M32592 47303l112 142c62,-98 49,-83 77,-203 -126,105 6,55 -189,61z"/>
   <path class="fil5" d="M44893 109847c-53,-172 -53,-89 0,-260l-149 170 149 90z"/>
   <path class="fil21" d="M31267 90273l-63 -179c-109,0 -75,-22 -64,101l127 78z"/>
   <path class="fil16" d="M55780 111640c-92,-36 -89,-20 -171,-63l58 133c298,40 -7,26 113,-70z"/>
   <path class="fil19" d="M35943 102620l119 0c0,-254 17,-27 -95,-126l-24 126z"/>
   <path class="fil9" d="M98847 30024c139,0 110,-38 110,90l87 -239 -197 149z"/>
   <path class="fil22" d="M109871 86080l126 -26c-66,-105 103,-85 -126,-85l0 111z"/>
   <polygon class="fil23" points="110375,90983 110375,90798 110253,90896 "/>
   <path class="fil5" d="M106842 91760l127 -41c-65,-90 101,-73 -127,-73l0 114z"/>
   <path class="fil24" d="M88178 28384c-43,-61 -81,-103 -135,-152l0 152 135 0z"/>
   <path class="fil17" d="M27082 54117c89,84 -12,48 118,19 60,-14 43,-9 69,-82l-187 63z"/>
   <polygon class="fil20" points="52650,110441 52726,110319 52590,110315 "/>
   <polygon class="fil24" points="99224,109432 99335,109432 99202,109306 "/>
   <path class="fil25" d="M37575 31627c0,-109 -31,-89 63,-89l-150 -89 87 178z"/>
  </g>
  <g id="_2043948065136">
   <path class="fil19" d="M141063 96750l0 -261c-589,0 -196,-14 -348,136l247 -32 101 157z"/>
   <path class="fil17" d="M140453 76847c90,153 -143,123 174,123 0,-350 21,-38 -116,-174l-58 51z"/>
   <path class="fil26" d="M150507 20660c2146,-201 4314,-301 6505,-301 1139,0 2285,111 3436,335 1151,223 2191,648 3118,1274 928,626 1688,1497 2280,2615 592,1117 888,2559 888,4325 0,1765 -296,3201 -888,4308 -592,1106 -1352,1972 -2280,2598 -927,626 -1961,1051 -3101,1274 -1140,224 -2269,335 -3386,335 -157,0 -336,-5 -537,-16 -201,-12 -391,-28 -570,-51l0 7209 -5465 0 0 -23905zm5465 11299l-134 737c693,90 1358,84 1995,-17 637,-100 1196,-301 1676,-603 481,-302 866,-710 1157,-1224 291,-514 436,-1140 436,-1877 0,-738 -112,-1358 -335,-1861 -224,-503 -520,-905 -889,-1207 -369,-301 -788,-520 -1257,-654 -470,-134 -961,-201 -1475,-201 -157,0 -313,0 -470,0 -156,0 -391,22 -704,67l0 6840zm14182 -11366l14115 0c-224,850 -447,1654 -671,2414 -223,760 -447,1542 -670,2347l-7376 0c0,89 11,218 34,385 22,168 33,297 33,386l0 3520 6772 0 0 4795 -6772 0 0 4593 -67 771 8851 0 0 4761 -14249 0 0 -23972zm18741 4191l-3184 0 2179 -4191 5498 0 7946 13143 201 570 0 -13713 5230 0 0 23972 -4459 0 -8046 -13243 -168 -503 0 13746 -5197 0 0 -19781zm22933 -4191l14114 0c-223,850 -446,1654 -670,2414 -224,760 -447,1542 -671,2347l-7376 0c0,89 12,218 34,385 22,168 34,297 34,386l0 3520 6772 0 0 4795 -6772 0 0 4593 -68 771 8852 0 0 4761 -14249 0 0 -23972zm17803 201c1072,-134 2056,-240 2950,-318 894,-78 1844,-117 2850,-117 1229,0 2453,117 3671,351 1218,235 2307,643 3268,1224 962,581 1738,1364 2331,2347 592,984 888,2235 888,3755 0,872 -117,1654 -352,2347 -235,693 -525,1302 -872,1827 -346,525 -732,984 -1156,1375 -425,391 -839,721 -1241,989l-167 100c0,0 151,246 452,738 302,492 671,1106 1107,1844 435,737 911,1531 1424,2380 514,850 989,1637 1425,2364 436,726 794,1335 1073,1827 279,492 419,727 419,704l-6135 0 -6337 -11030 0 11064 -5598 0 0 -23771zm5598 12506l1174 -537c290,-134 637,-302 1039,-503 403,-201 793,-463 1174,-787 380,-324 704,-710 972,-1157 268,-447 402,-995 402,-1643 0,-693 -100,-1268 -302,-1727 -201,-458 -480,-826 -838,-1106 -357,-279 -776,-481 -1257,-603 -481,-123 -1000,-185 -1559,-185 -112,0 -240,0 -386,0 -145,0 -285,11 -419,34l0 8214zm14752 -12707l5465 0 0 23972 -5465 0 0 -23972zm10762 34l5733 0 5096 12472c0,0 129,-308 386,-922 257,-615 575,-1381 955,-2297 380,-916 788,-1917 1224,-3001 436,-1084 844,-2090 1224,-3017 380,-927 693,-1699 938,-2313 246,-615 369,-922 369,-922l5364 0 1174 23938 -5532 0 -235 -13981 -3922 9119 -4057 0 -4057 -9119 -369 13981 -5196 0 905 -23938zm31616 4157l-2381 0 2180 -4157 7376 0 7509 23938 -5766 0 -1341 -4795 -1308 101 -4660 0 -1140 -101 -1375 4795 -5397 0 6303 -19781zm6269 10427l-2213 -7980 -2347 7980 4560 0zm15825 -10427l-2380 0 2179 -4157 7376 0 7510 23938 -5767 0 -1341 -4795 -1307 101 -4661 0 -1140 -101 -1374 4795 -5398 0 6303 -19781zm6270 10427l-2213 -7980 -2347 7980 4560 0zm12136 -10427l-3185 0 2180 -4191 5498 0 7946 13143 201 570 0 -13713 5230 0 0 23972 -4459 0 -8046 -13243 -168 -503 0 13746 -5197 0 0 -19781zm36075 9086c-715,-291 -1380,-615 -1995,-972 -614,-358 -1145,-789 -1592,-1291 -447,-503 -794,-1095 -1040,-1777 -246,-682 -369,-1492 -369,-2431 0,-1162 201,-2185 604,-3068 402,-883 967,-1626 1693,-2229 726,-603 1604,-1062 2632,-1375 1028,-313 2168,-469 3419,-469 1029,0 2079,106 3152,318 1073,213 2358,576 3855,1090l-2279 4090c-1453,-693 -2984,-1039 -4593,-1039 -313,0 -637,34 -973,100 -335,68 -637,185 -905,352 -268,168 -492,397 -670,688 -179,290 -269,670 -269,1140 0,380 73,693 218,939 146,245 330,458 554,636 223,179 480,330 771,453 290,123 581,240 871,352l1978 771c850,336 1627,688 2331,1056 704,369 1301,816 1793,1341 492,526 872,1168 1140,1928 268,760 402,1710 402,2850 0,1140 -206,2179 -620,3118 -413,939 -1017,1738 -1810,2397 -794,659 -1772,1174 -2934,1542 -1162,369 -2492,554 -3990,554 -692,0 -1329,-23 -1910,-67 -582,-45 -1146,-124 -1694,-235 -547,-112 -1095,-246 -1642,-403 -548,-156 -1135,-357 -1761,-603l1140 -4694c917,246 1816,464 2699,654 883,190 1783,285 2699,285 1229,0 2168,-162 2816,-486 649,-324 1029,-944 1140,-1861 45,-469 -11,-860 -167,-1173 -157,-313 -380,-576 -671,-788 -290,-213 -615,-386 -972,-520 -358,-134 -715,-268 -1073,-402l-1978 -771zm18808 -9086l-2380 0 2179 -4157 7376 0 7510 23938 -5767 0 -1340 -4795 -1308 101 -4660 0 -1140 -101 -1375 4795 -5398 0 6303 -19781zm6270 10427l-2213 -7980 -2347 7980 4560 0zm12137 -10427l-3185 0 2179 -4191 5498 0 7946 13143 201 570 0 -13713 5230 0 0 23972 -4459 0 -8046 -13243 -168 -503 0 13746 -5196 0 0 -19781zm27089 570l-5733 0 0 -4761 17266 0 -771 2347 -771 2414 -4493 0 101 939 0 18272 -5599 0 0 -19211zm14283 -4560c1073,-134 2056,-240 2950,-318 894,-78 1844,-117 2850,-117 1229,0 2453,117 3671,351 1218,235 2308,643 3269,1224 961,581 1738,1364 2330,2347 592,984 888,2235 888,3755 0,872 -117,1654 -352,2347 -234,693 -525,1302 -871,1827 -347,525 -732,984 -1157,1375 -425,391 -838,721 -1241,989l-167 100c0,0 151,246 452,738 302,492 671,1106 1107,1844 436,737 911,1531 1425,2380 514,850 989,1637 1425,2364 435,726 793,1335 1072,1827 280,492 420,727 420,704l-6136 0 -6337 -11030 0 11064 -5598 0 0 -23771zm5598 12506l1174 -537c290,-134 637,-302 1039,-503 403,-201 794,-463 1174,-787 380,-324 704,-710 972,-1157 268,-447 402,-995 402,-1643 0,-693 -100,-1268 -301,-1727 -201,-458 -481,-826 -839,-1106 -357,-279 -776,-481 -1257,-603 -480,-123 -1000,-185 -1559,-185 -112,0 -240,0 -385,0 -146,0 -285,11 -420,34l0 8214zm14752 -12707l5465 0 0 23972 -5465 0 0 -23972zm18373 101c894,-157 1833,-263 2816,-319 984,-56 2135,-84 3453,-84 1252,0 2420,101 3504,302 1084,201 2028,548 2833,1039 804,492 1436,1151 1894,1978 458,828 687,1867 687,3119 0,1028 -206,1978 -620,2849 -413,872 -933,1565 -1559,2079 470,201 928,464 1375,788 447,324 844,732 1190,1224 346,491 631,1067 855,1726 223,660 335,1403 335,2230 0,1475 -268,2687 -805,3637 -536,950 -1268,1693 -2195,2230 -928,536 -1995,911 -3202,1123 -1207,212 -2481,319 -3822,319 -939,0 -1962,-28 -3068,-84 -1106,-56 -2330,-162 -3671,-319l0 -23837zm5498 19579c313,45 632,73 956,84 324,11 609,17 855,17 402,0 838,-39 1307,-117 470,-79 894,-230 1274,-453 380,-224 699,-531 956,-922 257,-391 385,-911 385,-1559 0,-603 -100,-1095 -302,-1475 -201,-380 -480,-676 -838,-889 -357,-212 -788,-363 -1290,-452 -503,-90 -1068,-134 -1694,-134l-1609 0 0 5900zm1073 -10192c1006,45 1833,-134 2481,-536 648,-403 972,-1174 972,-2314 0,-558 -100,-1011 -301,-1357 -202,-347 -464,-621 -788,-822 -325,-201 -682,-335 -1073,-402 -391,-67 -777,-101 -1157,-101 -223,0 -425,0 -603,0 -179,0 -380,23 -604,67l0 5432 1073 33zm18473 -5297l-2380 0 2179 -4157 7376 0 7510 23938 -5767 0 -1341 -4795 -1307 101 -4661 0 -1140 -101 -1374 4795 -5398 0 6303 -19781zm6270 10427l-2213 -7980 -2347 7980 4560 0zm11198 -14417c1073,-134 2056,-240 2950,-318 894,-78 1844,-117 2850,-117 1229,0 2453,117 3671,351 1218,235 2308,643 3269,1224 961,581 1738,1364 2330,2347 592,984 888,2235 888,3755 0,872 -117,1654 -352,2347 -234,693 -525,1302 -871,1827 -347,525 -732,984 -1157,1375 -425,391 -838,721 -1241,989l-167 100c0,0 151,246 452,738 302,492 671,1106 1107,1844 436,737 911,1531 1425,2380 514,850 989,1637 1425,2364 435,726 793,1335 1072,1827 280,492 420,727 420,704l-6136 0 -6337 -11030 0 11064 -5598 0 0 -23771zm5598 12506l1174 -537c290,-134 637,-302 1039,-503 403,-201 794,-463 1174,-787 380,-324 704,-710 972,-1157 268,-447 402,-995 402,-1643 0,-693 -100,-1268 -301,-1727 -201,-458 -481,-826 -839,-1106 -357,-279 -776,-481 -1257,-603 -480,-123 -1000,-185 -1559,-185 -112,0 -240,0 -385,0 -146,0 -285,11 -420,34l0 8214zm14551 -12707l5499 0 0 12807c0,1252 56,2308 167,3169 112,860 302,1553 570,2078 268,525 637,900 1107,1123 469,224 1061,336 1777,336 737,0 1341,-112 1810,-336 469,-223 838,-592 1106,-1106 269,-514 458,-1201 570,-2062 112,-860 168,-1928 168,-3202l0 -12807 5498 0 0 13813c0,1654 -139,3129 -419,4426 -279,1296 -766,2397 -1458,3302 -693,905 -1626,1598 -2800,2079 -1173,480 -2665,721 -4475,721 -1788,0 -3269,-241 -4443,-721 -1173,-481 -2106,-1174 -2799,-2079 -693,-905 -1179,-2006 -1459,-3302 -279,-1297 -419,-2772 -419,-4426l0 -13813z"/>
   <path class="fil27" d="M176090 108699l0 -14890 -13415 0c0,4541 1568,9493 4705,14878l-9973 6603c-4823,-7539 -7235,-15312 -7235,-23319 0,-9553 2681,-16951 8042,-22219 5362,-5268 12889,-7902 22582,-7902l6813 0 2810 10536 -8008 0c-5525,0 -9610,784 -12256,2353 -2646,1569 -4741,4413 -6286,8534l12221 0 0 -9201 12292 0 0 34627 -12292 0zm32590 -46849l0 35892 16366 0 -3161 10957 -25496 0 0 -46849 12291 0zm35892 23390l0 9201 -18473 0 0 -9201 18473 0zm47481 -23390l0 46849 -12292 0 0 -26901 -9482 12291 -9412 -12291 0 26901 -12291 0 0 -46849 11589 0 10114 13486 10255 -13486 11519 0zm43898 0l0 46849 -17489 0c-7304,0 -12619,-1522 -15944,-4565 -3324,-3044 -4987,-7937 -4987,-14680 0,-4214 586,-8300 1756,-12257 1171,-3956 3302,-9072 6392,-15347l13205 0c-2716,5198 -4847,10161 -6392,14891 -1545,4729 -2318,8709 -2318,11940 0,3559 784,6029 2353,7410 1569,1382 4390,2072 8464,2072l2669 0 0 -36313 12291 0zm20369 0l0 35892 16366 0 -3161 10957 -25496 0 0 -46849 12291 0zm46147 0l2809 10536 -13064 0 0 36313 -12292 0 0 -36313 -13275 0 2880 -10536 32942 0zm27744 46849l0 -14890 -13416 0c0,4541 1569,9493 4706,14878l-9973 6603c-4823,-7539 -7235,-15312 -7235,-23319 0,-9553 2681,-16951 8042,-22219 5362,-5268 12889,-7902 22582,-7902l6813 0 2809 10536 -8007 0c-5525,0 -9611,784 -12257,2353 -2645,1569 -4740,4413 -6286,8534l12222 0 0 -9201 12291 0 0 34627 -12291 0zm20368 -46849l29501 0 -16015 36313 15663 0 -3090 10536 -30905 0 16155 -36313 -14118 0 2809 -10536zm56050 46849l0 -14890 -13415 0c0,4541 1569,9493 4706,14878l-9974 6603c-4823,-7539 -7234,-15312 -7234,-23319 0,-9553 2680,-16951 8042,-22219 5361,-5268 12889,-7902 22581,-7902l6813 0 2810 10536 -8007 0c-5526,0 -9611,784 -12257,2353 -2645,1569 -4741,4413 -6286,8534l12221 0 0 -9201 12292 0 0 34627 -12292 0zm63776 -46849l0 46849 -12291 0 0 -26901 -9482 12291 -9412 -12291 0 26901 -12292 0 0 -46849 11589 0 10115 13486 10254 -13486 11519 0z"/>
  </g>
  <rect class="fil28" width="595233" height="168864"/>
 </g>
</svg>
