<?xml version="1.0" encoding="UTF-8"?>
<!DOCTYPE svg PUBLIC "-//W3C//DTD SVG 1.1//EN" "http://www.w3.org/Graphics/SVG/1.1/DTD/svg11.dtd">
<!-- Creator: CorelDRAW X8 -->
<svg xmlns="http://www.w3.org/2000/svg" xml:space="preserve" width="500px" height="523px" version="1.1" style="shape-rendering:geometricPrecision; text-rendering:geometricPrecision; image-rendering:optimizeQuality; fill-rule:evenodd; clip-rule:evenodd"
viewBox="0 0 402 421"
 xmlns:xlink="http://www.w3.org/1999/xlink">
 <defs>
  <style type="text/css">
   <![CDATA[
    .fil4 {fill:black}
    .fil3 {fill:#1F1A17}
    .fil5 {fill:#201A18}
    .fil13 {fill:#313131}
    .fil1 {fill:#44916C}
    .fil11 {fill:#686563}
    .fil8 {fill:#7D7B7A}
    .fil14 {fill:#83807F}
    .fil26 {fill:#858382}
    .fil15 {fill:#8B8887}
    .fil17 {fill:#8D8A89}
    .fil18 {fill:#8E8D8B}
    .fil28 {fill:#908D8B}
    .fil27 {fill:#93908F}
    .fil16 {fill:#959392}
    .fil22 {fill:#999695}
    .fil25 {fill:#9B9897}
    .fil10 {fill:#9D9B9A}
    .fil21 {fill:#A19E9D}
    .fil12 {fill:#A2A09F}
    .fil19 {fill:#A4A3A1}
    .fil24 {fill:#A5A4A4}
    .fil7 {fill:#AAA8A7}
    .fil20 {fill:#ADABAA}
    .fil23 {fill:#B1B1B1}
    .fil6 {fill:#FBFBFB}
    .fil9 {fill:#FEFEFE}
    .fil2 {fill:#FF6500}
    .fil0 {fill:white}
   ]]>
  </style>
 </defs>
 <g id="Layer_x0020_1">
  <metadata id="CorelCorpID_0Corel-Layer"/>
  <g id="_2043861461792">
   <path class="fil0" d="M225 179l5 0 0 0 0 16 -5 0 0 -16zm-21 10l0 6 -5 0 0 -16c2,0 5,0 8,0 8,0 6,8 4,9 -2,2 -4,1 -7,1zm-22 -1l0 7c-2,1 -4,1 -5,0l-1 -7 -6 -9 6 0 3 6 3 -6 6 0 -6 9zm-30 -16c0,0 0,-1 0,-2 0,-1 0,-2 0,-3 2,-1 71,0 84,0 3,0 9,-1 12,0 0,1 0,4 0,6 -3,0 -80,0 -93,0 0,0 -1,0 -1,0 -2,0 -2,0 -2,-1zm93 -11l0 5c0,1 1,0 -1,1l-44 0c-3,0 -43,0 -45,-1 -1,-1 -1,-4 0,-5 2,0 76,0 88,0 0,0 1,0 1,0 1,0 1,0 1,0zm-86 -5l82 0 0 5 -82 0 0 -5zm4 -4l74 0 0 3 -74 0 0 -3zm5 -5l6 0c1,-2 2,-4 3,-6l5 -10c1,-1 1,0 1,-4 0,-3 0,-6 0,-10l17 -6c1,-1 7,2 9,2 2,1 6,2 8,4l0 13c1,1 1,0 2,1 1,4 7,15 7,16l6 0 0 4 -64 0 0 -4zm49 -32c-2,-1 -6,-3 -8,-3 -11,-5 -7,-5 -17,0 -3,0 -7,2 -9,3l0 -6 4 -2c1,-9 -1,-3 -1,-8 0,-3 1,-2 1,-4 1,-1 1,-10 0,-11 -1,-3 1,-2 1,-5 0,-1 0,-1 0,-2 1,-2 1,-1 1,-1 0,0 1,1 1,1 0,1 0,1 0,1 0,4 1,2 1,4 0,1 0,2 0,4l0 9c0,3 1,0 1,5 0,3 -1,0 -1,6 2,-1 8,-4 9,-4 2,0 7,3 10,4 0,-6 -2,-3 -1,-8 0,-2 1,-1 1,-3l0 -9c0,-2 -1,-3 -1,-4 1,-1 1,-1 1,-2 1,-1 0,-4 1,-5 1,1 1,3 1,4 1,3 2,2 2,4 -1,2 -1,0 -1,4 0,1 0,3 0,4 0,1 0,4 0,5 1,1 1,0 1,3 0,5 -1,-1 -1,8l4 2 0 6zm-41 12l-25 -1c-3,6 -9,17 -13,23 -1,2 -9,16 -9,17l49 104c5,12 11,24 17,36 1,4 4,9 5,13l12 -25c4,-8 7,-16 11,-24 4,-8 8,-17 12,-25 3,-8 7,-16 11,-24 7,-16 15,-33 23,-49 3,-8 3,-5 -1,-12l-17 -28c-1,-2 -2,-4 -3,-6l-22 0c0,0 2,-3 2,-3 1,-1 2,-3 2,-4 13,-25 -4,-52 -30,-52 -30,0 -44,35 -27,56 1,1 2,3 3,4z"/>
   <path class="fil1" d="M68 221c0,71 61,128 132,128 60,0 104,-39 122,-79 17,-39 12,-84 -12,-120 -2,-4 -5,-7 -8,-10 -1,-2 -2,-3 -3,-4 -1,-2 -11,-11 -12,-12l4 6c24,39 17,89 -5,127 -5,8 -9,14 -14,21 -2,1 -1,1 -4,1 -9,1 -17,1 -23,6 -4,2 -6,6 -9,9 -1,1 -2,2 -2,4 5,0 13,-4 17,-5 7,-2 12,-1 17,2 2,1 2,1 3,2 3,5 3,9 0,13 -3,4 -6,6 -12,8 -10,5 -21,9 -32,11 -12,3 -20,3 -27,16l-1 -2c-2,-4 -5,-7 -9,-9 -4,-2 -12,-4 -17,-5 -11,-2 -21,-6 -31,-11 -8,-3 -17,-7 -15,-17 1,-1 1,-3 2,-4 1,-1 1,-1 3,-2 6,-3 10,-4 17,-2 3,1 14,6 16,5 1,0 1,0 0,-2 0,-1 -1,-2 -1,-2 -10,-13 -13,-13 -31,-15 -3,0 -3,1 -4,-1 -29,-36 -44,-82 -29,-128 2,-7 6,-15 10,-21 1,-2 3,-4 4,-6 -3,2 -11,11 -14,13 -20,24 -32,52 -32,85z"/>
   <path class="fil2" d="M68 221c0,-33 12,-61 32,-85 3,-2 11,-11 14,-13 -1,2 -3,4 -4,6 -4,6 -8,14 -10,21 -15,46 0,92 29,128 1,2 1,1 4,1 18,2 21,2 31,15 0,0 1,1 1,2 1,2 1,2 0,2 -2,1 -13,-4 -16,-5 -7,-2 -11,-1 -17,2 -2,1 -2,1 -3,2 -1,1 -1,3 -2,4 -2,10 7,14 15,17 10,5 20,9 31,11 5,1 13,3 17,5 4,2 7,5 9,9l1 2c7,-13 15,-13 27,-16 11,-2 22,-6 32,-11 6,-2 9,-4 12,-8 3,-4 3,-8 0,-13 -1,-1 -1,-1 -3,-2 -5,-3 -10,-4 -17,-2 -4,1 -12,5 -17,5 0,-2 1,-3 2,-4 3,-3 5,-7 9,-9 6,-5 14,-5 23,-6 3,0 2,0 4,-1 5,-7 9,-13 14,-21 22,-38 29,-88 5,-127l-4 -6c1,1 11,10 12,12 1,1 2,2 3,4 3,3 6,6 8,10 24,36 29,81 12,120 -18,40 -62,79 -122,79 -71,0 -132,-57 -132,-128zm108 -94c-1,-1 -2,-3 -3,-4 -17,-21 -3,-56 27,-56 26,0 43,27 30,52 0,1 -1,3 -2,4 0,0 -2,3 -2,3l22 0c1,2 2,4 3,6l17 28c4,7 4,4 1,12 -8,16 -16,33 -23,49 -4,8 -8,16 -11,24 -4,8 -8,17 -12,25 -4,8 -7,16 -11,24l-12 25c-1,-4 -4,-9 -5,-13 -6,-12 -12,-24 -17,-36l-49 -104c0,-1 8,-15 9,-17 4,-6 10,-17 13,-23l25 1zm-15 -27c0,9 2,15 5,22 -6,0 -11,0 -17,0l-13 21c-2,4 -10,18 -13,22 1,1 1,2 1,3l9 18c0,1 1,1 1,2l11 24c0,0 1,1 1,2l6 13c4,7 7,14 10,21l7 15c5,11 10,22 16,33l11 23c0,2 3,10 5,11l6 -13c4,-9 8,-18 12,-27 3,-5 5,-11 8,-16 4,-10 9,-21 14,-30l3 -7c0,-1 1,-2 1,-3l14 -30c0,-1 1,-2 2,-4l15 -33c1,-3 1,-1 -4,-9l-14 -24c-3,-4 -5,-9 -8,-12l-15 0c0,-2 2,-6 3,-11 2,-5 1,-8 1,-13 2,1 6,2 7,2 8,3 20,10 26,15 1,1 2,2 3,3 9,9 16,21 21,33 4,14 5,24 5,38 0,21 -8,46 -18,64 -1,1 -2,3 -3,4 0,1 -1,3 -2,4l-6 8c-5,8 -3,5 -14,7 -2,0 -4,0 -6,0 -6,2 -10,5 -15,9 -2,2 -6,7 -7,10 -2,8 6,8 11,7 10,-3 13,-7 23,-4 2,1 3,1 4,4 1,2 0,4 -1,5 -1,1 -3,3 -4,4 -1,1 -2,1 -2,1 -13,5 -15,7 -30,11 -4,1 -8,2 -12,3 -17,4 -15,7 -19,10 -4,-5 -10,-8 -16,-9 -10,-2 -19,-5 -29,-8 -4,-2 -14,-6 -18,-8 -2,-1 -5,-4 -5,-8 0,-1 0,-2 1,-3 0,0 2,-1 3,-1 8,-4 13,-1 22,2 10,4 17,-1 9,-11 -8,-10 -12,-13 -25,-15 -2,0 -4,0 -6,0 -6,-1 -3,1 -7,-4 -5,-7 -9,-14 -13,-21 -3,-5 -6,-11 -8,-16 -1,-3 -2,-5 -3,-8 -5,-17 -8,-38 -5,-57 2,-8 3,-15 6,-22 1,-2 2,-5 3,-7 1,-1 1,-2 2,-3 0,-1 1,-2 1,-3 2,-3 4,-5 6,-8 1,-1 1,-2 2,-3 5,-5 9,-9 15,-13 4,-3 8,-5 12,-7 2,-1 12,-5 14,-5 0,1 0,1 0,2zm1 -7c-4,0 -10,3 -13,4 -14,6 -26,13 -38,22 -4,4 -9,8 -12,12 -8,8 -17,21 -22,31 -8,18 -13,36 -13,57 0,18 2,30 7,46 6,14 14,28 23,39l6 7c3,3 7,6 10,9 1,1 2,2 3,2 3,3 6,5 9,7 9,6 12,8 21,12 3,2 8,4 12,5 4,1 8,2 12,4 23,5 50,5 72,-2 1,0 3,-1 4,-1 17,-5 33,-15 47,-27l3 -2c6,-5 15,-15 19,-22l3 -5c6,-8 11,-17 14,-27 3,-9 6,-18 7,-27 2,-19 0,-38 -5,-55 -3,-9 -6,-16 -10,-23l-3 -6c-4,-6 -9,-14 -14,-19l-2 -2c-1,-1 -1,-1 -1,-1 -2,-3 -5,-5 -7,-7 -1,-1 -1,-1 -1,-1 -6,-6 -18,-14 -25,-18 -1,0 -1,-1 -3,-1 -1,-1 -2,-1 -3,-2l-12 -6c-3,-1 -5,-1 -7,-2 -7,-2 -2,1 -8,-11 -1,-2 -3,-5 -5,-7 0,0 0,0 -1,-1 0,-1 -2,-2 -2,-2 -4,-3 -7,-6 -12,-7 -9,-4 -20,-5 -29,-1 -3,1 -6,3 -9,5 0,0 -1,1 -2,2 -4,3 -7,7 -10,11 -1,3 -3,7 -3,10z"/>
   <path class="fil3" d="M98 365l0 0zm-1 19l0 0 0 -1c2,0 4,-2 5,-3 1,-1 12,-8 13,-9 0,0 -2,-1 -3,-2 -2,-1 -10,-6 -11,-6 -1,0 -1,1 -3,2 0,-1 1,-3 2,-4 -1,-1 -5,-4 -7,-5 -3,-2 -4,-2 -9,-2 0,-1 2,-3 2,-3 -2,-3 -9,-10 -11,-12 -2,-3 -1,-2 -7,1 1,1 4,4 5,5 -1,2 -9,9 -11,11l-4 3c1,1 4,4 5,5 1,0 13,-12 15,-13 0,0 3,3 3,4 -3,0 -8,5 -10,9 -1,2 -2,5 -3,7 0,3 -1,3 2,3 1,0 3,0 5,0 0,-2 2,-6 3,-7 1,0 5,3 5,4 -1,2 -3,4 -5,6 1,1 2,2 3,3 1,0 2,1 3,2l10 -13c1,-1 2,-2 2,-2 -1,-1 -4,-4 -5,-5 -1,1 -1,1 -2,2 0,1 -1,1 -2,2 0,0 -2,-1 -2,-2 -1,-1 -2,-1 -3,-2 1,0 2,-1 3,-1 1,0 3,0 4,0 3,1 11,9 14,10l-17 11c-1,0 -1,0 -1,1 1,1 13,9 14,9 1,0 4,-3 5,-4 0,0 -6,-4 -7,-4z"/>
   <path class="fil4" d="M224 147l-23 0c2,-1 8,-2 11,-2 5,0 8,1 12,2zm-25 0l-22 0c1,0 1,0 2,-1 3,-1 6,-1 9,-1 3,0 9,0 11,2zm2 -15c3,-1 4,-2 8,-2 2,0 5,1 7,2 1,0 3,5 3,6 1,2 3,4 4,6 -2,0 -4,-1 -6,-1 -6,-1 -10,0 -16,2l0 -13zm-23 12c0,-2 2,-4 3,-6 1,-2 2,-5 3,-6 6,-4 14,-2 15,0l0 13c-4,-1 -6,-2 -11,-2 -4,0 -6,1 -10,1zm-10 7l64 0 0 -4 -6 0c0,-1 -6,-12 -7,-16 -1,-1 -1,0 -2,-1l0 -13c-2,-2 -6,-3 -8,-4 -2,0 -8,-3 -9,-2l-17 6c0,4 0,7 0,10 0,4 0,3 -1,4l-5 10c-1,2 -2,4 -3,6l-6 0 0 4z"/>
   <path class="fil3" d="M322 382l-1 0 -12 -8c-2,0 -1,-1 -1,-3 0,-2 -1,-4 -1,-7 1,1 2,1 2,2l9 10c1,1 2,2 2,3 1,1 4,4 5,4l1 1 0 -1c0,0 0,0 0,0 1,0 1,0 1,0 0,-1 0,-1 0,-1 2,-7 2,-5 -1,-7l-6 -7 6 -4c0,1 7,8 7,8 1,0 2,-1 3,-2 1,-1 2,-2 3,-2 -1,-1 -5,-6 -7,-7 0,-1 0,-1 -1,-2l-7 -8c-1,-1 -2,-3 -3,-3 -1,1 -4,4 -5,5l4 4c1,1 1,1 1,2 -1,1 -1,1 -2,2l-3 3 -4 -5c0,-1 -1,-1 -1,-2 -2,2 -2,3 -5,4 -1,1 -2,1 -3,2 -1,1 -2,2 -3,2 0,1 0,2 0,3 0,1 1,2 1,4 0,2 0,4 0,6 -1,-1 -2,-3 -3,-5 -1,-1 -2,-4 -3,-5 -1,1 -2,2 -3,2 -1,1 -2,2 -3,2 0,1 1,2 2,3 3,5 10,15 12,19 1,0 5,-3 6,-4 -1,-2 -2,-4 -4,-6 0,-1 -1,-1 -1,-2 -1,-1 -2,-2 -2,-3 0,0 12,7 13,8 1,-1 2,-2 3,-2 1,-1 3,-2 4,-3z"/>
   <path class="fil3" d="M208 399c0,-1 1,0 1,0 0,0 -1,0 -1,0zm1 -1l0 -3c-3,0 -5,0 -7,0 0,1 -1,2 -1,4 0,2 0,4 0,5l0 11c-2,0 -4,0 -6,-1 -3,-3 0,-11 1,-13 3,-8 6,-7 -4,-7 -1,0 -1,1 -1,1 -3,6 -4,9 -4,16 0,4 2,7 5,9 3,1 11,1 16,1 0,-7 0,-13 0,-20 1,0 1,0 1,0 0,0 0,0 0,0l0 2c1,1 1,1 2,2 0,1 1,2 2,3 1,1 2,2 3,2 2,2 3,2 3,4 -3,0 -6,1 -9,1 0,1 2,4 2,6 3,0 10,-1 12,-2 3,-2 4,-6 2,-9 -2,-2 -9,-8 -9,-9 -1,-1 0,-1 1,-1 2,0 5,-1 7,-1 0,-2 -2,-3 -2,-6 -3,0 -10,1 -12,3 -1,0 -1,0 -1,1 -1,0 -1,0 -1,0l0 1z"/>
   <path class="fil3" d="M333 346c0,-1 3,-9 10,-1 2,3 4,9 0,9 -3,0 -10,-4 -10,-8zm5 -15c1,1 2,2 3,3 -5,0 -6,0 -11,5 -6,6 -6,12 1,18 10,7 23,4 21,-8 -1,-4 -2,-6 -3,-8 -1,-1 -1,-1 -2,-2 -2,-3 -4,-3 -4,-4 0,-1 1,-1 1,-2 1,-1 2,-2 2,-3 1,0 10,7 13,9 1,0 3,2 4,2 0,0 4,-4 4,-5l-6 -4c-1,-1 -2,-1 -2,-2 -2,-1 -8,-5 -8,-6 0,-1 1,-2 2,-3 0,-1 1,-2 2,-3 -3,0 -4,-1 -6,-2 -2,3 -4,5 -6,8 -1,1 -1,2 -2,3 -1,1 -3,3 -3,4z"/>
   <path class="fil3" d="M388 161c0,0 0,0 1,0 0,0 0,0 -1,0zm-22 -1c0,1 0,1 0,2 0,1 0,2 1,2l1 0c1,0 8,-1 10,-1 2,-1 3,-1 5,-1 2,-1 3,-1 5,-1 0,0 0,0 0,0l-21 8c0,2 1,3 1,5 2,0 3,0 6,0l11 1c3,0 4,0 6,0l0 0c-3,0 -18,3 -22,4 0,1 0,4 1,4 0,1 0,1 1,0 1,0 2,0 3,0 3,-1 24,-4 26,-4 0,-2 -1,-5 -1,-7 0,-2 -1,-1 -3,-1l-18 -1c1,-1 9,-4 9,-4 2,-1 3,-1 5,-2l5 -2 -1 -7c0,-1 -1,-1 -2,0 -3,0 -6,1 -10,1 -5,2 -13,3 -19,4 1,0 0,0 1,0z"/>
   <path class="fil4" d="M152 172l96 1 0 -6c-23,0 -48,0 -72,0 -4,0 -21,0 -24,0l0 5z"/>
   <path class="fil3" d="M372 297l0 0zm-7 -11c0,1 -1,2 -1,3 -1,2 -2,2 -1,4 2,2 3,5 4,7l-9 1c-1,0 -1,1 -2,3 0,1 -1,2 -1,3 1,1 4,3 5,3 4,2 14,7 18,9 1,-1 3,-5 3,-6 -1,-1 -12,-7 -13,-7l-1 0 1 -1c1,1 4,0 6,0 1,-1 2,0 1,-1 0,-1 -2,-6 -3,-7 3,0 12,6 14,6l3 -6c-4,-2 -8,-4 -12,-6 -1,0 -10,-5 -11,-5l-1 0z"/>
   <path class="fil3" d="M41 303l0 0c0,-1 -1,-1 0,-1 1,0 3,-5 3,-6 2,-3 -1,-4 -2,-7 -1,0 -4,2 -6,3 -2,1 -4,1 -6,3 -2,1 -10,5 -11,5 0,2 1,3 1,4 1,1 1,2 2,3 1,-1 11,-6 13,-7l-2 6c-1,0 -1,1 -1,2 2,0 6,1 8,1l-7 3c-2,2 -4,3 -6,4l3 6c1,0 4,-2 5,-3 3,-1 16,-8 18,-8 0,-1 -2,-6 -4,-7 0,0 -7,-1 -8,-1z"/>
   <path class="fil3" d="M146 397l0 0zm-14 -14l0 0 -1 3 -2 5c0,1 -1,3 -1,5 -1,1 -4,8 -4,9 1,1 6,2 7,3 1,-2 5,-13 4,-14 1,-1 1,-1 1,-1 0,0 0,0 0,0l1 2c0,1 1,5 1,5l1 0c1,0 2,-1 3,-1 1,-1 3,-2 4,-2 -1,2 -4,10 -5,14 2,1 4,1 6,2l7 -18c0,-2 1,-5 2,-7 -7,-1 -4,-4 -11,1 -1,1 -2,2 -3,2 0,1 1,1 0,1l0 -1c0,-1 -1,-3 -1,-4 -2,-5 -1,-4 -5,-5 -1,-1 -2,-1 -3,-2l-1 3z"/>
   <path class="fil3" d="M393 286l0 0 -1 0c-1,0 -2,0 -4,0 -2,0 -2,0 -4,-1 1,-2 2,-5 3,-7l7 3c1,-1 2,-6 2,-7 -1,0 -3,-1 -4,-1 -2,-1 -3,-1 -5,-2l-9 -3c0,1 -2,6 -2,7l5 2c-1,1 -2,5 -2,6 -3,-1 -4,-4 -4,-8 1,-2 3,-6 3,-8 -3,0 -4,0 -7,0 0,1 -2,8 -2,11 0,4 2,7 4,9 3,3 6,4 9,5 2,1 4,1 7,1 1,0 4,0 6,-1 0,-1 -2,-5 -2,-6z"/>
   <path class="fil3" d="M1 255c0,0 4,4 4,4 1,0 3,-2 6,-3 1,-1 1,-1 2,-1 0,1 2,6 2,7 -2,0 -3,1 -4,1 -2,0 -3,1 -4,1 0,2 1,4 1,6 3,0 17,-4 19,-4 0,-2 -1,-4 -1,-7 -2,0 -4,1 -5,1 0,-1 -2,-4 -2,-6 7,0 8,8 9,13 2,0 4,-2 6,-3 0,-3 -3,-9 -5,-12 -1,-1 -3,-3 -5,-3 -5,-3 -11,-2 -16,0 -3,1 -6,4 -7,6z"/>
   <path class="fil3" d="M248 416l2 -1 0 -1c0,-1 -1,-5 -1,-6 -1,-6 -2,-13 -4,-18 0,0 -5,1 -6,1 0,1 1,7 1,8l-6 -5c-2,-1 -2,-2 -4,-1 -1,0 -4,0 -5,1 0,1 4,24 5,26 0,-1 6,-2 7,-2 0,-1 -2,-9 -3,-12 0,-1 0,-3 0,-4 1,1 2,2 3,3 7,6 5,3 7,12 1,0 3,-1 4,-1z"/>
   <path class="fil3" d="M129 386l0 0 -1 -1c-2,-1 -3,-2 -5,-2 0,2 -1,3 -2,4 -1,0 -2,0 -3,-1 -1,-1 -2,-1 -3,-1 2,-2 5,-3 8,-3 4,1 6,4 8,4 0,-1 0,0 0,-1 0,-1 0,-1 0,-1 0,-1 1,-1 1,-1l0 0c0,-2 0,-2 0,-3 -6,-3 -11,-6 -18,-3l-6 5c-2,3 -4,6 -4,9 0,1 -1,6 -1,7 1,1 0,1 3,0 6,0 4,0 4,-4 1,-2 1,-3 2,-4 2,0 4,2 6,3 0,1 -3,6 -3,8 2,0 4,2 6,2 0,-1 1,-3 2,-4 1,-1 1,-3 2,-4 1,-1 1,-3 2,-4 1,-2 2,-3 2,-5z"/>
   <polygon class="fil4" points="245,166 245,161 155,161 155,166 "/>
   <path class="fil3" d="M373 265l0 1c1,0 1,0 2,0l13 3c2,0 5,0 7,1 4,1 3,0 7,0 0,-1 -2,-6 -3,-7 -4,0 -8,-1 -11,-1 0,-3 1,-5 1,-7l11 1c1,0 2,-6 2,-6 -1,0 -3,-1 -4,-1l-19 -3c-1,-1 -2,-1 -3,-1 0,3 -1,4 -1,7 2,0 5,1 8,1 0,3 -1,5 -1,7 -3,0 -6,-1 -9,-1 0,2 -1,4 0,6z"/>
   <path class="fil3" d="M181 393l-1 0 0 1c0,1 -1,5 -1,6l0 1 -1 0 -1 0c-2,-1 -2,-1 -3,0l-2 -1 0 -1c0,0 0,0 0,0l1 -7c-2,0 -4,-1 -7,-1l-4 26c0,1 1,2 1,4 1,0 2,-1 3,-1 2,-1 2,-1 4,-2 0,-5 1,-8 1,-12 2,0 5,1 7,1 0,2 -1,7 -1,9 -1,3 -1,3 0,3 0,0 6,1 6,1 1,-1 0,-1 1,-3l3 -22c0,-2 -2,-1 -3,-1 -1,-1 -2,-1 -3,-1z"/>
   <path class="fil3" d="M187 107l-4 2 0 6c2,-1 6,-3 9,-3 10,-5 6,-5 17,0 2,0 6,2 8,3l0 -6 -4 -2c0,-9 1,-3 1,-8 0,-3 0,-2 -1,-3 0,-1 0,-4 0,-5 0,-1 0,-3 0,-4 0,-4 0,-2 1,-4 0,-2 -1,-1 -2,-4 0,-1 0,-3 -1,-4 -1,1 0,4 -1,5 0,1 0,1 -1,2 0,1 1,2 1,4l0 9c0,2 -1,1 -1,3 -1,5 1,2 1,8 -3,-1 -8,-4 -10,-4 -1,0 -7,3 -9,4 0,-6 1,-3 1,-6 0,-5 -1,-2 -1,-5l0 -9c0,-2 0,-3 0,-4 0,-2 -1,0 -1,-4 0,0 0,0 0,-1 0,0 -1,-1 -1,-1 0,0 0,-1 -1,1 0,1 0,1 0,2 0,3 -2,2 -1,5 1,1 1,10 0,11 0,2 -1,1 -1,4 0,5 2,-1 1,8z"/>
   <path class="fil3" d="M179 1c0,2 0,3 0,5 0,1 1,3 1,5l1 10c-1,-1 -8,-12 -9,-14 -1,-1 -3,-3 -3,-4 -2,0 -4,0 -5,0 0,2 1,13 1,15 1,3 1,5 1,8l1 8c2,-1 3,-1 5,-1l-2 -19 12 18 4 -1c2,0 1,0 1,-4l-3 -22c0,-1 0,-3 0,-4 -2,0 -4,0 -5,0z"/>
   <path class="fil3" d="M323 67l0 0zm-3 -12l1 -1 -1 1 -3 15c-1,2 -1,4 -1,6 1,0 3,2 4,3 1,-1 8,-10 9,-12 1,-1 2,-2 3,-3 1,-1 2,-2 2,-3 2,-1 4,-4 5,-6l-3 -3 -11 13c-1,1 -1,1 -2,2 0,-1 1,-4 1,-5 1,-3 4,-15 4,-16 -1,-1 -1,-1 -2,-2 -1,0 -1,-1 -2,-1 -1,1 -16,18 -18,21 -1,1 -1,1 -1,2 0,1 2,3 3,3 1,-1 8,-9 9,-11 1,0 1,-1 2,-1 0,-1 1,-2 1,-2z"/>
   <path class="fil3" d="M89 34l7 10c0,1 1,1 1,2 1,1 2,3 3,4 -1,0 -1,-1 -2,-1 -1,-1 -2,-1 -3,-1l-9 -6c-6,-3 -5,-3 -7,-1 -1,1 -2,1 -2,1l6 10c1,1 1,2 2,3l7 9c1,1 1,3 2,3 1,0 3,-1 4,-2 0,-2 -7,-10 -8,-12 -1,-1 -2,-2 -3,-4 1,0 15,8 18,9 1,1 1,1 3,0 0,0 1,-1 2,-2 0,-1 -7,-11 -8,-12l-7 -10c0,0 -2,-2 -2,-3 -1,0 -3,2 -4,3z"/>
   <path class="fil3" d="M256 387l0 -1 -1 1c-1,0 -5,1 -6,2 0,0 0,6 0,7 0,5 1,9 3,12 1,2 2,3 4,4 4,1 10,-1 15,-3 1,0 2,-1 3,-1 0,-1 -2,-5 -2,-6l-7 -19c0,0 -6,2 -6,2 0,1 0,0 0,1 0,0 0,0 0,0l6 18c-2,1 -6,4 -9,-3 0,-2 0,-8 0,-10 0,-1 0,-2 0,-4z"/>
   <path class="fil3" d="M35 327c0,3 2,6 3,8l5 7 17 -11c0,0 1,-1 2,-2 1,0 2,-1 3,-2 0,0 -3,-5 -4,-5 -1,0 -13,8 -15,10 0,0 -1,1 -2,1 -2,-3 -3,-4 -1,-7 1,-2 4,-3 6,-4 3,-1 10,-2 10,-2 0,-2 -1,-2 -2,-3 0,-1 -1,-3 -2,-3 -4,0 -9,1 -13,3 -3,2 -7,5 -7,10z"/>
   <path class="fil3" d="M239 29c-2,0 -4,-1 -6,-1 0,-1 1,-3 1,-5 0,-1 1,-3 1,-4l2 -10c2,0 5,0 6,1 5,2 3,11 1,14 0,2 -2,5 -5,5zm-12 3c7,1 16,7 21,-4 4,-6 6,-19 -2,-23 -1,0 -11,-3 -13,-3 0,1 -6,29 -6,30z"/>
   <path class="fil3" d="M203 25c-1,1 -4,1 -6,0l0 -20c2,0 4,0 5,0 3,0 4,1 5,3 1,3 1,10 0,13 -1,3 -2,3 -4,4zm-11 5l9 0c15,0 13,-19 10,-25 -1,-2 -4,-5 -7,-5l-12 0 0 30z"/>
   <polygon class="fil4" points="159,161 241,161 241,156 159,156 "/>
   <path class="fil3" d="M265 43c1,0 0,0 1,0 1,-2 1,-3 1,-4 3,-6 1,-3 8,-7l0 15c1,0 1,1 1,1 0,0 0,0 0,0l1 0c6,3 4,3 4,-5 0,-3 -1,-11 -1,-14 2,0 4,-2 6,-3 1,0 2,-1 3,-1 1,-1 3,-2 3,-2 0,0 0,0 1,-1 0,0 0,0 -1,0 0,-1 -4,-2 -5,-2 -1,-1 -1,0 -2,1 -2,1 -11,6 -12,6l4 -9c0,-1 0,-2 1,-3l-5 -2 -3 7c-1,2 -9,20 -9,21 1,1 3,2 4,2z"/>
   <path class="fil3" d="M350 90c0,6 2,7 2,11 0,3 -5,4 -7,2 -3,-5 0,-7 1,-9 0,0 -3,-3 -3,-3 -1,0 -1,0 -2,1 0,1 -1,1 -1,2 -5,6 1,15 8,16 4,0 10,-5 10,-10 0,-1 0,-3 -1,-5 0,-2 -3,-8 2,-8 1,0 4,3 4,5 0,2 -2,3 -2,4 1,1 2,3 3,3 9,-6 2,-17 -5,-17 -5,0 -9,4 -9,8z"/>
   <path class="fil3" d="M136 10l9 30 18 -6c0,-1 -1,-3 -1,-5 -2,1 -12,4 -14,4 0,-3 -1,-5 -2,-8l11 -3c1,0 1,0 1,-1l-1 -4c-2,0 -4,1 -6,1 -1,1 -2,1 -3,1 -1,0 -3,1 -3,1 -1,-2 -2,-4 -2,-6 1,-1 11,-3 13,-4 -1,-2 -1,-4 -2,-5l-18 5z"/>
   <path class="fil3" d="M40 82c0,2 1,5 2,6 3,2 5,3 8,3 4,0 8,-6 11,-6 4,0 5,7 0,9 -1,0 -2,0 -3,0 -1,0 -2,-1 -3,-1l-3 4c12,8 18,-4 18,-7l0 -2c0,-3 -5,-9 -10,-9 -6,0 -12,9 -14,5 -2,-3 1,-6 3,-6 2,0 3,0 4,1 1,-2 2,-3 3,-5 -3,0 -2,-2 -7,-2 -4,0 -9,6 -9,10z"/>
   <path class="fil3" d="M25 154c0,0 0,0 -1,0 0,0 0,0 0,0 0,0 0,0 0,0 -1,-1 -1,-1 -1,-1l-8 -5 11 0c0,1 -2,5 -1,6zm-17 -11c0,2 -1,4 -1,6 1,0 25,17 27,17 0,-1 1,-3 1,-5 -1,0 -5,-3 -6,-4 0,-1 1,-3 1,-4 1,-2 1,-4 1,-5l8 0c0,-2 1,-4 1,-6 -1,0 -2,0 -4,0 -1,0 -2,0 -4,0l-20 1c-1,0 -2,0 -4,0z"/>
   <path class="fil3" d="M67 61c2,0 9,5 10,5 0,1 -4,5 -5,5 0,-1 -2,-4 -2,-5l-3 -5zm0 0l0 0 0 0 0 0 0 0zm-7 -4c0,1 3,6 3,7l10 22c2,0 2,-1 3,-2 0,0 2,-1 2,-2 0,-1 -3,-4 -3,-6 0,-1 6,-6 7,-7l6 4c1,-1 4,-3 4,-4 -2,-2 -5,-3 -7,-4l-21 -12c-1,1 -1,1 -2,2 0,0 -2,2 -2,2z"/>
   <path class="fil3" d="M301 49l-5 -4c0,-1 3,-3 4,-3l4 -4 -3 11zm-19 2c0,0 3,2 4,3l6 -5 6 4c0,0 1,1 2,1 -1,1 -2,6 -2,7 1,1 2,1 2,2 1,0 2,1 3,1 0,-1 3,-14 4,-15l4 -16c-2,-1 -4,-2 -5,-3l-15 13c-1,1 -2,1 -3,2 -1,1 -6,5 -6,6z"/>
   <path class="fil3" d="M34 104c2,1 8,3 10,3l-3 5 -7 -8zm13 22c0,0 0,0 0,0l1 -1c0,-1 0,-1 1,-1 0,-1 0,-1 1,-2 -1,-1 -4,-5 -5,-5 1,-3 3,-6 5,-9l7 2c0,-2 2,-4 2,-5 -1,-1 -29,-7 -31,-7 0,2 -2,3 -2,5 0,1 1,2 2,3 2,2 6,6 8,8l3 3c1,2 7,8 8,9z"/>
   <path class="fil3" d="M374 145c0,-2 -2,-5 -2,-7 2,0 4,0 5,0 3,0 4,0 6,0 0,1 -2,1 -2,2l-5 3c-1,1 -1,1 -2,2zm-17 -11c1,1 2,3 2,5l7 0 3 9c0,0 -1,1 -1,1 -1,0 -1,1 -2,1l-3 2c1,2 1,4 2,5l13 -9c1,-1 2,-1 3,-2l10 -7c0,-2 -1,-4 -2,-6 -5,0 -10,1 -15,1 -6,0 -11,0 -17,0z"/>
   <path class="fil3" d="M118 23c3,0 6,-4 9,0 1,1 2,3 1,4 -1,2 -5,4 -6,4l-3 -7c-1,0 -1,-1 -1,-1zm5 24c1,1 0,1 1,1 1,0 3,-1 4,-1 0,-2 -4,-9 -4,-11 3,-2 7,-3 9,-6 3,-5 -1,-13 -6,-14 -3,-2 -7,1 -11,2 -1,1 -3,2 -5,3l2 3c1,3 9,22 10,23z"/>
   <polygon class="fil4" points="163,155 237,155 237,152 163,152 "/>
   <path class="fil3" d="M3 164c0,1 7,5 8,6 1,1 2,2 3,2l0 0c-2,0 -10,4 -13,4 0,1 0,3 0,4 0,2 -1,2 2,1 0,0 1,0 1,0l14 -5c0,0 1,0 1,0 2,0 4,0 6,0 3,1 5,1 7,1 0,-1 0,-1 1,-2 0,-1 0,-2 -1,-3 0,0 -11,-1 -12,-2l-13 -9c-1,-1 -2,-2 -3,-2 0,2 -1,3 -1,5z"/>
   <path class="fil3" d="M18 117l9 10c-5,0 -9,1 -13,1 -1,2 -2,4 -3,6l18 -2c4,0 2,0 7,2 2,1 6,3 7,3 0,-1 1,-2 1,-3 0,-1 1,-1 1,-2l-8 -3c-6,-3 -4,-2 -9,-8 -1,-1 -2,-2 -2,-3l-6 -6c0,1 -1,2 -1,3 0,0 -1,1 -1,2z"/>
   <path class="fil3" d="M60 354l1 0 -1 -1c-1,-2 -3,-4 -5,-6 1,-1 1,-1 2,-2 1,0 1,-1 2,-1 1,-1 3,-2 4,-3l6 -5c0,-1 1,-1 2,-2 -1,-1 -4,-4 -5,-5 -1,0 -2,1 -2,2 -4,4 -11,8 -15,12 -1,1 -1,1 -2,1 0,1 0,1 -1,1 0,1 2,2 2,3 1,1 2,2 3,3 0,1 1,2 2,3 1,1 1,2 2,3 1,-1 5,-2 5,-3z"/>
   <path class="fil3" d="M267 383c0,1 2,4 2,6 1,1 1,1 2,3l4 8c0,2 1,2 1,3 1,2 1,2 2,3 0,0 1,0 1,0l12 -5c0,-1 -1,-6 -1,-6l-6 2c-1,0 -2,1 -3,1l-6 -13c-1,-2 -1,-4 -2,-5 -2,0 -4,2 -6,3z"/>
   <path class="fil3" d="M9 275c0,1 2,5 3,6l1 6c1,1 0,1 6,1 2,0 1,-1 0,-4 -1,-1 -2,-3 -2,-5l19 -6 -2 -7 -18 6c-2,1 -5,2 -7,3z"/>
   <path class="fil3" d="M349 117c0,1 2,4 2,6 1,1 5,8 6,9l4 -2c0,-1 -5,-10 -5,-11 2,-2 18,-10 22,-12 -1,-1 -3,-4 -3,-4l-23 12c-1,0 -2,1 -3,2z"/>
   <path class="fil5" d="M376 226l0 1 1 0c1,-1 5,-4 7,-5l5 4c1,0 1,0 1,0 1,1 0,1 1,1l0 0c1,-2 -2,-7 -2,-9 1,-1 2,-2 4,-3 0,0 3,-2 3,-2l0 -1 -9 0c-1,-1 -1,-1 -1,-2 0,-1 0,-2 -1,-3 0,-1 0,-1 0,-2 -1,-1 -1,-2 -2,-2 0,1 -2,8 -2,9l-10 0c0,1 3,2 4,3 0,0 1,1 2,1 0,1 1,1 2,2 -1,1 -3,7 -3,8z"/>
   <path class="fil5" d="M5 226l0 1 1 0c1,-1 5,-4 7,-5l5 3c2,2 1,1 2,1 1,1 0,1 0,0l-1 -3c1,-1 -1,-3 -1,-5l5 -4c1,0 2,-1 3,-1l0 -1 -10 0c-1,-2 -3,-8 -3,-9 -1,0 -3,8 -3,9l-10 0c0,1 0,0 2,2 1,0 5,3 6,4 -1,2 -3,6 -3,8z"/>
   <path class="fil3" d="M353 309l-3 6 8 5c3,2 11,7 14,9 0,-1 3,-5 3,-6 -1,-1 -20,-14 -22,-14l0 0z"/>
   <path class="fil3" d="M265 11c0,0 0,0 0,0 -1,-1 -3,-2 -4,-2 -1,1 -1,3 -1,4 -1,3 -9,24 -9,26 2,0 4,1 5,1 1,-1 1,-2 2,-4 0,-2 7,-23 7,-25z"/>
   <path class="fil3" d="M220 4c0,0 -3,26 -3,27 1,0 3,1 4,0l1 0 0 0c1,-1 1,-3 1,-4 0,-4 3,-24 3,-26 -2,0 -2,0 -4,0l-1 0c0,1 0,2 -1,3z"/>
   <path class="fil3" d="M330 90c0,1 3,3 3,4l3 -3c3,-3 9,-8 12,-11l8 -7c-1,0 -1,-1 -2,-2 -1,0 -1,-1 -2,-2 -1,2 -2,3 -4,4l-7 6c-2,2 -7,7 -8,8 -1,1 -2,2 -3,3z"/>
   <path class="fil4" d="M204 186c0,0 0,0 0,-1l0 -2c1,-1 2,-1 3,0 1,0 1,1 0,2 0,1 -2,1 -3,1zm0 3c3,0 5,1 7,-1 2,-1 4,-9 -4,-9 -3,0 -6,0 -8,0l0 16 5 0 0 -6z"/>
   <path class="fil4" d="M176 188c1,1 1,1 1,2l0 5 4 0c0,-1 0,-2 0,-3 0,-2 0,-3 1,-4l6 -9 -6 0 -3 6 -3 -6 -6 0 6 9z"/>
   <path class="fil6" d="M180 141c4,-2 10,-2 14,-1l0 2c-1,0 -1,0 -3,0 -1,-1 -2,-1 -3,-1 -3,0 -4,1 -7,2l-1 -2zm15 -4c0,1 0,1 0,1 0,1 0,1 0,1 -2,1 -2,-1 -6,-1 -5,0 -4,1 -6,1l0 -1c0,-1 0,-1 0,-2 0,-1 0,-1 1,-1 1,-2 4,-1 6,-1 -2,-1 -4,0 -5,0l-1 -2c3,-1 6,-1 10,0 2,1 2,1 2,3 -1,1 0,0 -1,0 0,1 0,1 0,2zm-17 7c4,0 6,-1 10,-1 5,0 7,1 11,2l0 -13c-1,-2 -9,-4 -15,0 -1,1 -2,4 -3,6 -1,2 -3,4 -3,6z"/>
   <path class="fil6" d="M205 143l-1 -2c8,-2 8,-1 15,0l0 2c-4,1 -3,-3 -14,0zm-1 -8c2,-1 5,-1 7,-1 4,0 3,1 6,2l0 2c1,1 1,0 1,2 -3,0 -3,-1 -6,-1 -5,0 -5,0 -7,1l-1 -2c3,-1 6,-1 9,-1 -1,-1 -3,-1 -4,-1 -2,0 -3,1 -5,1 0,-1 -1,-1 0,-2zm-1 -2c3,-3 12,-3 13,0 -6,1 -7,-1 -12,2l-1 -2zm-2 -1l0 13c6,-2 10,-3 16,-2 2,0 4,1 6,1 -1,-2 -3,-4 -4,-6 0,-1 -2,-6 -3,-6 -2,-1 -5,-2 -7,-2 -4,0 -5,1 -8,2z"/>
   <polygon class="fil4" points="225,195 230,195 230,179 230,179 225,179 "/>
   <path class="fil7" d="M245 166l-90 0 0 -5 90 0c0,0 0,0 -1,0 0,0 -1,0 -1,0 -12,0 -86,0 -88,0 -1,1 -1,4 0,5 2,1 42,1 45,1l44 0c2,-1 1,0 1,-1z"/>
   <path class="fil8" d="M152 172l0 -5c3,0 20,0 24,0 24,0 49,0 72,0l0 6 -96 -1zm0 0c0,1 0,1 2,1 0,0 1,0 1,0 13,0 90,0 93,0 0,-2 0,-5 0,-6 -3,-1 -9,0 -12,0 -13,0 -82,-1 -84,0 0,1 0,2 0,3 0,1 0,2 0,2z"/>
   <path class="fil4" d="M205 140c2,-1 2,-1 7,-1 3,0 3,1 6,1 0,-2 0,-1 -1,-2l0 -2c-3,-1 -2,-2 -6,-2 -2,0 -5,0 -7,1 -1,1 0,1 0,2 2,0 3,-1 5,-1 1,0 3,0 4,1 -3,0 -6,0 -9,1l1 2z"/>
   <path class="fil5" d="M22 285c0,2 3,9 4,10 0,0 1,0 2,-1 1,0 2,0 3,0 0,-1 -1,-2 -1,-3l-3 -7c-2,0 -3,1 -5,1z"/>
   <path class="fil4" d="M184 135l-1 2c2,0 1,0 2,-1 1,0 2,0 2,0 2,0 3,0 5,0 1,0 1,1 3,1 0,-1 0,-1 0,-2 1,0 0,1 1,0 0,-2 0,-2 -2,-3 -4,-1 -7,-1 -10,0l1 2c1,0 3,-1 5,0 -2,0 -5,-1 -6,1z"/>
   <path class="fil9" d="M199 147c-2,-2 -8,-2 -11,-2 -3,0 -6,0 -9,1 -1,1 -1,1 -2,1l22 0z"/>
   <path class="fil9" d="M224 147c-4,-1 -7,-2 -12,-2 -3,0 -9,1 -11,2l23 0z"/>
   <path class="fil4" d="M205 143c11,-3 10,1 14,0l0 -2c-7,-1 -7,-2 -15,0l1 2z"/>
   <path class="fil4" d="M181 143c3,-1 4,-2 7,-2 1,0 2,0 3,1 2,0 2,0 3,0l0 -2c-4,-1 -10,-1 -14,1l1 2z"/>
   <path class="fil4" d="M203 133l1 2c5,-3 6,-1 12,-2 -1,-3 -10,-3 -13,0z"/>
   <path class="fil4" d="M183 138l0 1c2,0 1,-1 6,-1 4,0 4,2 6,1l0 -1c-3,-2 -5,-2 -8,-2 -2,1 -2,0 -4,2z"/>
   <path class="fil9" d="M204 186c1,0 3,0 3,-1 1,-1 1,-2 0,-2l-3 0 0 3z"/>
   <path class="fil10" d="M203 25l-6 0 0 -20 5 0c-1,0 -3,0 -5,0l0 20c2,1 5,1 6,0z"/>
   <path class="fil11" d="M182 188c-1,1 -1,2 -1,4 0,1 0,2 0,3l-4 0 0 -5c0,-1 0,-1 -1,-2l1 7c1,1 3,1 5,0l0 -7z"/>
   <path class="fil12" d="M187 136c3,0 5,0 8,2l0 1c0,0 0,0 0,-1 0,0 0,0 0,-1 -2,0 -2,-1 -3,-1 -2,0 -3,0 -5,0l-1 0 1 0z"/>
   <path class="fil13" d="M183 138c2,-2 2,-1 4,-2l-1 0 1 0c0,0 -1,0 -2,0 -1,1 0,1 -2,1l1 -2c-1,0 -1,0 -1,1 0,1 0,1 0,2z"/>
   <path class="fil14" d="M204 186l0 -3 3 0c-1,-1 -2,-1 -3,0l0 2c0,1 0,1 0,1z"/>
   <path class="fil15" d="M20 226c0,1 -1,1 1,1l-1 -3c-1,-1 0,0 -1,-1l1 3c0,1 1,1 0,0z"/>
   <path class="fil16" d="M368 164l-1 0c-1,0 -1,-1 -1,-2 0,-1 0,-1 0,-2 0,2 0,3 0,4 0,0 1,0 1,0 1,0 0,1 1,0z"/>
   <path class="fil16" d="M131 386c0,0 0,0 0,0l1 -3 0 0c0,0 -1,0 -1,1 0,0 0,0 0,1 0,1 0,0 0,1z"/>
   <path class="fil10" d="M248 416c1,0 1,0 2,0 0,-1 0,-1 0,-1 0,-1 0,-1 0,-1l0 1 -2 1z"/>
   <path class="fil16" d="M135 394c1,0 1,0 1,0l0 -1c0,1 0,1 0,1 1,1 1,1 1,1l-1 -2c0,0 0,0 0,0 0,0 0,0 -1,1z"/>
   <path class="fil16" d="M220 4c1,-1 1,-2 1,-3l1 0c0,0 1,0 0,0 0,0 -1,0 -1,0 0,1 -1,1 -1,3z"/>
   <path class="fil10" d="M375 266c-1,0 -1,0 -2,0l0 -1c-1,0 -1,-1 -1,1 2,0 1,0 3,0z"/>
   <path class="fil16" d="M255 387l1 -1 0 1c0,0 0,1 0,-1 -1,0 -1,0 -1,1z"/>
   <path class="fil17" d="M178 401l1 0 0 -1c0,0 0,-1 0,1l-1 0z"/>
   <path class="fil18" d="M174 401c-1,-1 0,-1 -1,-1 0,0 -1,0 -1,0l0 -1c0,0 0,0 0,0l0 1 2 1z"/>
   <path class="fil10" d="M292 23c1,0 1,0 1,-1 0,0 0,0 -1,0 1,0 1,0 1,0 -1,1 -1,1 -1,1z"/>
   <path class="fil10" d="M6 227l-1 0 0 -1c0,1 0,0 0,1 0,0 0,0 0,0 1,0 0,0 1,0z"/>
   <path class="fil18" d="M124 48c-1,0 0,0 -1,-1 0,1 0,1 0,1 2,0 1,0 1,0z"/>
   <path class="fil18" d="M377 227l-1 0 0 -1c0,1 0,-1 0,1 1,0 0,0 1,0z"/>
   <path class="fil19" d="M221 31c1,1 0,1 1,1l0 -1 0 0 -1 0z"/>
   <path class="fil20" d="M393 286l0 -1c-2,0 -1,0 -1,1l1 0 0 0z"/>
   <path class="fil21" d="M180 394l0 -1 1 0c0,0 0,0 -1,0l0 1z"/>
   <path class="fil22" d="M325 383c1,1 0,1 1,1l0 -1 0 1 -1 -1z"/>
   <path class="fil20" d="M139 400l-1 0 0 1c1,0 1,0 1,-1z"/>
   <path class="fil7" d="M265 43c0,0 -1,0 1,0l0 0c-1,0 0,0 -1,0z"/>
   <path class="fil23" d="M265 11c1,0 1,1 1,0l-1 0c0,0 0,0 0,0z"/>
   <path class="fil19" d="M47 126l0 1c0,-1 0,-1 0,-1 0,0 0,0 0,0z"/>
   <path class="fil7" d="M97 384c0,-1 0,0 0,-1l0 1 0 0z"/>
   <path class="fil24" d="M41 303l0 -1c-1,0 0,0 0,1l0 0z"/>
   <path class="fil21" d="M391 227c0,0 0,0 1,0 0,-1 0,0 -1,0l0 0z"/>
   <path class="fil19" d="M142 391c0,0 0,0 0,0l0 1c1,0 0,0 0,-1z"/>
   <path class="fil20" d="M60 354l1 0c0,-1 0,0 0,0l-1 0z"/>
   <path class="fil12" d="M320 55c1,0 0,-1 0,0l1 -1 -1 1z"/>
   <path class="fil25" d="M365 286l1 0c0,-1 0,-1 -1,-1l0 1z"/>
   <polygon class="fil26" points="368,306 368,305 367,306 "/>
   <path class="fil7" d="M353 309l0 0c0,0 1,0 0,0l0 0z"/>
   <path class="fil27" d="M276 48c0,0 0,-1 -1,-1l0 1 1 0z"/>
   <path class="fil21" d="M24 154c0,0 0,0 0,0 1,0 1,0 1,0l-1 0z"/>
   <polygon class="fil23" points="129,386 130,386 129,386 "/>
   <polygon class="fil27" points="322,382 322,382 321,382 "/>
   <path class="fil28" d="M67 61c0,0 0,0 0,0l0 0 0 0z"/>
  </g>
 </g>
</svg>
