<?xml version="1.0" encoding="UTF-8"?>
<!DOCTYPE svg PUBLIC "-//W3C//DTD SVG 1.1//EN" "http://www.w3.org/Graphics/SVG/1.1/DTD/svg11.dtd">
<!-- Creator: CorelDRAW X8 -->
<svg xmlns="http://www.w3.org/2000/svg" xml:space="preserve" width="300px" height="160px" version="1.1" style="shape-rendering:geometricPrecision; text-rendering:geometricPrecision; image-rendering:optimizeQuality; fill-rule:evenodd; clip-rule:evenodd"
viewBox="0 0 178 95"
 xmlns:xlink="http://www.w3.org/1999/xlink">
 <defs>
  <style type="text/css">
   <![CDATA[
    .fil3 {fill:none}
    .fil1 {fill:#E6E6E6}
    .fil0 {fill:#CCCCCC;fill-rule:nonzero}
    .fil2 {fill:#E6E6E6;fill-rule:nonzero}
   ]]>
  </style>
 </defs>
 <g id="Layer_x0020_1">
  <metadata id="CorelCorpID_0Corel-Layer"/>
  <path class="fil0" d="M60 40c-2,0 -2,-1 -3,-1 -1,-1 -1,-2 -1,-3 1,-1 1,-2 2,-2 1,-1 2,-1 3,-1 1,0 2,0 3,1 0,0 1,1 0,2 0,1 0,2 -1,3 -1,0 -2,1 -3,1z"/>
  <g id="_2044025132656">
   <path class="fil1" d="M31 33l25 0c0,1 -1,2 -1,3 -1,1 0,2 0,3l-25 0 1 -6z"/>
   <path class="fil2" d="M116 46c2,-3 5,-4 9,-4 3,0 5,1 6,3 2,-2 5,-3 8,-3 6,0 8,3 7,9l-4 17 -7 0 3 -17c1,-2 1,-3 0,-4 0,-1 -1,-1 -2,-1 -1,0 -2,1 -3,2 -1,1 -2,3 -2,5l-3 15 -8 0 4 -17c0,-2 0,-3 0,-4 -1,-1 -1,-1 -2,-1 -2,0 -3,1 -4,2 0,1 -1,3 -2,5l-3 15 -7 0 5 -26 5 0 0 4z"/>
   <path class="fil2" d="M98 68l0 -3c-2,1 -3,2 -4,3 -2,1 -3,1 -5,1 -3,0 -5,-1 -6,-2 -1,-2 -1,-3 -1,-6 1,-3 2,-5 5,-6 2,-2 6,-2 11,-2l0 -2c1,-1 1,-2 1,-3 -1,0 -1,-1 -2,-1 0,-1 -1,-1 -3,-1 -1,0 -4,1 -7,1l1 -4c4,-1 7,-1 9,-1 4,0 6,1 7,2 2,2 2,4 2,7l-4 17 -4 0zm-2 -12c-2,0 -4,1 -5,2 -1,0 -1,2 -2,3 0,2 1,4 3,4 1,0 2,-1 3,-2 1,0 1,-2 2,-3l0 -4 -1 0z"/>
   <polygon class="fil2" points="80,68 60,68 61,65 76,47 65,47 66,42 85,42 84,46 70,64 81,64 "/>
   <polygon class="fil2" points="58,68 50,68 55,46 52,46 53,42 63,42 "/>
   <path class="fil2" d="M34 46c2,-3 5,-4 9,-4 3,0 4,1 6,2 1,2 1,4 1,7l-4 17 -7 0 3 -17c0,-2 0,-3 0,-4 0,-1 -1,-1 -2,-1 -1,0 -3,1 -4,2 -1,1 -1,3 -2,5l-3 15 -7 0 5 -26 4 0 1 4z"/>
  </g>
  <rect class="fil3" width="177.996" height="94.6885"/>
 </g>
</svg>
