<?xml version="1.0" encoding="UTF-8"?>
<!DOCTYPE svg PUBLIC "-//W3C//DTD SVG 1.1//EN" "http://www.w3.org/Graphics/SVG/1.1/DTD/svg11.dtd">
<!-- Creator: CorelDRAW X8 -->
<svg xmlns="http://www.w3.org/2000/svg" xml:space="preserve" width="300px" height="145px" version="1.1" style="shape-rendering:geometricPrecision; text-rendering:geometricPrecision; image-rendering:optimizeQuality; fill-rule:evenodd; clip-rule:evenodd"
viewBox="0 0 178 86"
 xmlns:xlink="http://www.w3.org/1999/xlink">
 <defs>
  <style type="text/css">
   <![CDATA[
    .fil0 {fill:none}
    .fil2 {fill:white}
    .fil1 {fill:#FF6600;fill-rule:nonzero}
    .fil3 {fill:white;fill-rule:nonzero}
   ]]>
  </style>
 </defs>
 <g id="Layer_x0020_1">
  <metadata id="CorelCorpID_0Corel-Layer"/>
  <rect class="fil0" width="178.158" height="86.1621"/>
  <path class="fil1" d="M61 32c-1,0 -2,0 -3,-1 0,0 -1,-1 0,-2 0,-1 0,-2 1,-3 1,0 2,-1 3,-1 1,0 2,1 3,1 1,1 1,2 1,3 -1,1 -1,2 -2,2 -1,1 -2,1 -3,1z"/>
  <g id="_2044036132480">
   <path class="fil2" d="M33 25l25 0c-1,1 -2,2 -2,3 0,2 0,3 1,4l-26 0 2 -7z"/>
   <path class="fil3" d="M116 39c3,-3 6,-5 9,-5 3,0 6,2 6,4 3,-2 5,-4 8,-4 6,0 8,3 7,9l-4 18 -7 0 4 -18c0,-2 0,-3 -1,-4 0,0 -1,0 -2,0 -1,0 -2,0 -3,1 -1,1 -1,3 -2,5l-3 16 -7 0 3 -18c1,-2 1,-3 0,-3 0,-1 -1,-1 -2,-1 -1,0 -2,0 -3,1 -1,1 -2,3 -2,5l-3 16 -7 0 5 -26 4 0 0 4z"/>
   <path class="fil3" d="M99 61l-1 -4c-1,1 -2,2 -4,3 -1,1 -3,1 -4,1 -3,0 -5,-1 -6,-2 -1,-1 -1,-3 -1,-6 1,-3 2,-5 4,-6 3,-1 7,-2 12,-2l0 -2c0,-1 0,-2 0,-2 0,-1 0,-2 -1,-2 0,0 -1,0 -3,0 -2,0 -4,0 -7,1l1 -4c3,-1 6,-2 9,-2 3,0 6,1 7,3 2,1 2,3 1,6l-3 18 -4 0zm-2 -13c-2,0 -4,1 -5,2 -1,1 -1,2 -2,3 0,3 1,4 3,4 1,0 2,-1 3,-1 1,-1 1,-2 1,-4l1 -4 -1 0z"/>
   <polygon class="fil3" points="81,61 62,61 62,57 77,39 66,39 67,35 86,35 85,39 71,56 82,56 "/>
   <polygon class="fil3" points="59,61 52,61 56,39 53,39 54,35 64,35 "/>
   <path class="fil3" d="M35 39c3,-3 6,-5 9,-5 3,0 5,1 6,3 1,1 2,3 1,6l-4 18 -7 0 4 -18c0,-1 0,-3 0,-3 -1,-1 -1,-1 -3,-1 -1,0 -2,0 -3,1 -1,1 -2,3 -2,5l-3 16 -7 0 5 -26 4 0 0 4z"/>
  </g>
 </g>
</svg>
